<?xml version="1.0" encoding="UTF-8"?>
<svg id="_レイヤー_2" data-name="レイヤー 2" xmlns="http://www.w3.org/2000/svg" xmlns:xlink="http://www.w3.org/1999/xlink" viewBox="0 0 142.54 141.48">
  <defs>
    <style>
      .cls-1 {
        fill: #fcefce;
      }

      .cls-1, .cls-2, .cls-3, .cls-4, .cls-5, .cls-6 {
        stroke-width: 0px;
      }

      .cls-2 {
        fill: url(#_新規グラデーションスウォッチ_3);
      }

      .cls-3 {
        fill: url(#_新規グラデーションスウォッチ_3-5);
      }

      .cls-4 {
        fill: url(#_新規グラデーションスウォッチ_3-2);
      }

      .cls-5 {
        fill: url(#_新規グラデーションスウォッチ_3-4);
      }

      .cls-6 {
        fill: url(#_新規グラデーションスウォッチ_3-3);
      }

      .cls-7 {
        fill: none;
        stroke: #e2b518;
        stroke-width: 8px;
      }

      .cls-7, .cls-8 {
        stroke-miterlimit: 10;
      }

      .cls-8 {
        fill: #fff;
        stroke: #fff;
      }
    </style>
    <linearGradient id="_新規グラデーションスウォッチ_3" data-name="新規グラデーションスウォッチ 3" x1="-50.47" y1="119.04" x2="-13.18" y2="119.04" gradientTransform="translate(54.52 2.64) rotate(-12.3)" gradientUnits="userSpaceOnUse">
      <stop offset="0" stop-color="#fffbc4"/>
      <stop offset="1" stop-color="#ebbb00"/>
    </linearGradient>
    <linearGradient id="_新規グラデーションスウォッチ_3-2" data-name="新規グラデーションスウォッチ 3" x1="-93.05" y1="109.75" x2="-55.76" y2="109.75" gradientTransform="translate(44.02 2.64) rotate(-167.7) scale(1 -1)" xlink:href="#_新規グラデーションスウォッチ_3"/>
    <linearGradient id="_新規グラデーションスウォッチ_3-3" data-name="新規グラデーションスウォッチ 3" x1="0" y1="108.24" x2="71.24" y2="108.24" gradientTransform="matrix(1,0,0,1,0,0)" xlink:href="#_新規グラデーションスウォッチ_3"/>
    <linearGradient id="_新規グラデーションスウォッチ_3-4" data-name="新規グラデーションスウォッチ 3" x1="-420.01" y1="108.24" x2="-348.77" y2="108.24" gradientTransform="translate(-277.47) rotate(-180) scale(1 -1)" xlink:href="#_新規グラデーションスウォッチ_3"/>
    <linearGradient id="_新規グラデーションスウォッチ_3-5" data-name="新規グラデーションスウォッチ 3" x1=".35" y1="70.74" x2="141.83" y2="70.74" gradientTransform="matrix(1,0,0,1,0,0)" xlink:href="#_新規グラデーションスウォッチ_3"/>
  </defs>
  <g id="_レイヤー_1-2" data-name="レイヤー 1">
    <g>
      <polygon class="cls-2" points="41.86 106.87 29.18 123.33 71.24 141.2 41.86 106.87"/>
      <polygon class="cls-4" points="100.26 106.87 112.94 123.33 70.88 141.2 100.26 106.87"/>
      <polygon class="cls-6" points="15.89 75.27 0 88.65 71.24 141.2 15.89 75.27"/>
      <polygon class="cls-5" points="126.65 75.27 142.54 88.65 71.3 141.2 126.65 75.27"/>
      <rect class="cls-1" x="28.57" y="28.22" width="85.04" height="85.04" transform="translate(-29.2 70.99) rotate(-45)"/>
      <path class="cls-3" d="M71.09,141.48L.35,70.74,71.09,0l70.74,70.74-70.74,70.74ZM21.57,70.74l49.53,49.53,49.53-49.53-49.53-49.53-49.53,49.53Z"/>
      <g>
        <path class="cls-7" d="M68.41,85.92v.09c0,.35.09.66.09.92,0,.09,0,.18-.04.26,0,.88-.35,1.36-1.23,1.45-.35.09-.7.13-1.01.13-.4,0-.7-.04-.92-.09-.35,0-.62.04-.84.04-.35,0-.62-.04-1.1-.09-.75.09-1.19-.18-1.94-.04-.22.09-.53.13-.84.13-.4,0-.79-.04-1.06-.13-.22.09-.48.09-.79.09-.66,0-1.45-.13-2.07-.09-1.06.09-1.8.09-2.9,0-.92.09-1.8-.13-2.86,0-.84.04-2.11-.18-2.91,0-1.14-.04-2.07.18-2.9,0-.97-.18-2.02-.09-2.9,0-.7-.04-1.36.09-2.02.09-.31,0-.57,0-.88-.09-.79.22-1.8-.18-2.86,0-.48,0-1.23-.18-1.89,0l-1.89.04c-.53.09-.92.13-1.28.13-.26,0-.48-.04-.66-.09-.31.04-.7.09-1.14.09-.31,0-.57-.04-.84-.13-.7.04-1.19-.66-1.19-1.32v-.13c.04-.18.09-.44.09-.66,0-.31-.04-.66-.09-.92.13-.84.22-1.28,1.19-1.45.57-.22,1.28.13,1.98-.04.44-.09,1.32,0,1.94.04.57-.09,1.23.22,1.89.04.57.09,1.36.22,1.89,0,.57,0,1.28.09,2.2,0,.79.13,1.5.13,2.2,0,.88-.04,1.41.04,1.94,0s1.23-.31,1.67-.92c.35-.44.66-1.23.66-1.85,0-.97-.04-2.38,0-3.26.09-.97,0-2.2,0-3.12v-3.12c-.18-1.19.04-2.07,0-3.12-.04-1.23-.13-1.94,0-3.08-.09-1.14.09-2.02,0-3.12v-3.08c-.04-.88-.04-1.67,0-2.33,0-.62.18-1.67-.04-2.33-.09-.92.09-1.5,0-1.98-.09-.7.35-1.23,1.06-1.23h.13c.48,0,1.06.09,1.89.09.75.18,1.28-.09,1.8.13.26.09.66.18.79.48.13.35-.09.66-.22.79-.44.44-.35.62-.48.7-.26.79,0,1.85-.18,2.86.09.92.18,2.11,0,2.82.18.84-.04,1.63,0,2.77.04.57.26,1.14.7,1.58.57.66.92.92,1.36.79.66.09,1.85.09,2.46,0,.57.13,1.63-.04,2.42.04.66,0,1.58-.04,2.42,0,1.19-.04,2.02-.04,3.04-.04.4,0,.66-.04.97,0,.84-.13,1.19.84,1.23,1.45.04.44,0,1.01,0,1.5.04.75-.35,1.67-1.23,1.45-.7.18-1.58.13-2.07,0-.84.04-1.63.09-2.07,0-.79-.09-1.72.09-2.33,0-.75.22-1.58.22-2.38,0-.62,0-1.94.13-2.46,0-.35.04-.75.13-1.36.53-.26.22-.79.88-.7,1.14-.04.62-.09,1.58,0,2.02.04.84-.13,1.28,0,1.94-.22.79-.22,1.28,0,1.94-.04.57.04,1.19,0,1.94.13.66.13,1.32,0,1.94-.22.66.18,1.28.09,1.8-.04.4.35.92.66,1.32.4.48.97.7,1.45.57.7.13,1.63.04,2.6,0,.7.18,1.41-.09,2.46,0,.79.18,1.76-.09,2.42,0,.7.09,1.36-.04,1.89,0,.62.18,1.41,0,1.94-.04.53.04,1.32-.13,1.94-.04.57.13,1.36.22,1.94,0,.62-.04,1.23.57,1.23,1.41v.09c-.04.09-.04.22-.04.31Z"/>
        <path class="cls-7" d="M82.4,73.6c-.04.92-.22,2.24,0,2.99.09.88-.04,1.63,0,2.6.13.97-.13,1.94,0,2.55-.09.53.18,1.14.04,1.94-.09.53-.18,1.45,0,1.89.04.84.18,1.54.04,1.98-.18.79-.04,1.54,0,1.98-.09,1.06-.75,1.28-1.5,1.36h-1.63c-.92-.04-1.54-.66-1.45-1.36.13-.4-.09-.44,0-.75.04-.57.13-1.32,0-1.8.04-.75-.18-1.01.04-1.76-.13-1.19-.04-2.46,0-3.48.09-.7-.18-1.41,0-2.42.09-1.01.18-1.54,0-2.51-.18-.75,0-1.58,0-2.33-.18-.57.18-1.28-.31-1.8-.57-.48-1.1-.35-1.67-.4-.53,0-1.36.04-1.89.31-.22.31-.48.66-.75.66-.84-.04-.88-.31-.97-.66-.09-.35-.35-.75-.4-1.41-.31-.92-.57-1.45-.57-1.94,0-.09.04-.18.04-.31,0-.4.44-.79,1.14-.7.31.04.48,0,.7-.04.57.04,1.01.09,1.54-.26.35-.22.79-.97,1.28-1.54.31-.44.7-1.36.26-2.11-.31-.35-.92-.57-1.01-.88-.66-.75-1.28-.75-1.63-1.41-.66-.44-1.19-.84-1.72-1.28-.18-.09-.66-.57-.66-1.06v-.13c.09-.4.04-.62.31-.84.26-.22.44-.62.66-.88.04-.31.44-1.01.97-.92.48.18.97.13,1.54-.88.04-.53.26-.75.66-1.28.18-.57.48-.66.62-1.36.04-.62.53-.97.62-1.41.04-.48.4-1.45,1.36-1.5h.13c.26,0,.4.26.57.18.26.09.66.26,1.23.53.62.04.79.57,1.28.62.53.57.04,1.14-.22,1.23s-.44.18-.48.48c-.48.75-.53,1.19-.84,1.63-.22.57-.79,1.23-.84,1.67-.48.53-.66,1.1-.88,1.58-.35.75-.22,1.45.31,1.98.18.26.26.31.53.4.31.18.79-.18,1.06-.53.26-.31.35-.7.7-1.32.35-.7.66-1.28,1.01-2.02.44-.62.53-1.58,1.5-1.63.35-.04.48.26.75.22.26.4.7.35,1.28.57.22.04.84.35,1.32.62.22.13.53.48.4.92-.18.7-.75.44-1.14.88-.13.31-.4.62-.75,1.14-.22.44-.35.57-.62,1.14-.48.48-.62,1.19-1.14,1.94-.31.84-.84.88-1.23,1.89-.31.35-.92,1.14-1.19,1.72-.7.88-.44,1.67.22,1.58.4.09,1.19-.04,1.67-.13.53-.22.92-.18.84-.79-.04-.44-.44-.84-.4-1.14s.13-.84.84-1.06c.35-.13.48-.13.75-.4.18.04.4-.31.97-.31.7,0,.48.53.97.79.31.18.48.66.66,1.23.44.35.66,1.01.88,1.67.4.84.62,1.23.84,1.8.22.7.4.84.35,1.32.09.84-.66.97-.97,1.19-.53.13-.53.22-.97.44-.18.18-.48.18-.88.18-.84.18-.53-.66-1.23-1.28-.48-.4-1.19-.26-1.72-.13-.35.13-.88.13-1.14.44-.31.35-.13.88-.09,1.89ZM77.39,75.75c0,.53-.75.84-.75,1.41,0,.84-.09,1.63-.09,2.16.13.88-.26,2.07-.31,2.86-.31.92-.44,1.8-.48,2.9l-.35,1.58c-.18.62-.4,1.28-1.14.97-.48.09-1.28-.62-1.8-.7-.4-.22-.79-.53-.92-1.19-.09-.75.31-1.41.44-1.98-.04-.57.09-1.36.35-1.85-.04-.53,0-1.19.26-1.89-.18-.4.26-1.06.13-1.89,0-.48.26-1.14.09-1.94-.22-.53.09-1.76,1.19-1.5l1.8.35c1.01.04,1.58.18,1.58.7ZM84.25,80.02c-.09-.79-.31-1.5-.7-2.42-.44-1.06-.66-1.89-.62-2.11-.13-.48.26-.79.88-1.1.26.09.22-.4.66-.31.31.04.53-.04.7-.18.44-.09.66.09,1.14.66.4.53.26.97.62,1.28.35.4.4,1.14.66,1.67.26.79.4,1.67.35,1.98-.04.62-.62.75-.88,1.01-.4.35-.7.4-1.01.44-.22.04-.48.18-.7.22-.75-.13-1.01-.53-1.1-1.14ZM111.49,89.18c-.26.48-.31.92-1.14,1.06-.62.09-1.28-.44-1.85-.84-.53-.53-.97-.88-1.54-1.14-.66-.48-.97-.66-1.5-1.14-.62-.26-1.14-1.01-1.5-1.32-.48-.62-2.02-.4-2.55,0-.62.4-1.01.75-1.54,1.23-.35.31-1.14.79-1.58,1.1-.62.35-1.06.57-1.72.97-.48.26-.84.35-1.5.84-.79.44-1.14.62-1.67.53-.44.22-.92-.44-1.1-.7-.31-1.01-1.23-1.67-1.01-2.29.04-.75.4-1.06,1.1-1.19.57-.44,1.28-.53,2.11-1.06.7-.48,1.32-.62,1.94-1.23.48-.31.79-.57,1.19-.79.22-.4.7-.53.88-.84.09-.18.48-.7.62-1.5.04-.35,0-1.1-.44-1.41-.26-.18-.4-.79-.7-1.32-.31-.26-.53-.75-.66-1.28-.22-.62-.35-.97-.57-1.32-.31-.66-.7-.7-.97-.62-.44.09-.75.18-1.01,1.1-.22.4-.31.53-.22.75-.22.7-.66,1.63-.79,2.29-.53.88-.48,1.36-.97,2.2-.13.22-.66.79-.92,1.67-.31.26-.26.75-.7,1.28-.13.62-.66.97-.84,1.36-.26.53-.4.79-.88,1.28-.35.35-.79.88-.88,1.1-.66.75-1.28,1.23-1.45,1.06-.79-.09-1.19-.88-1.5-1.19-.57-.35-1.01-1.01-1.1-1.76.18-.57.7-1.19.92-1.58.26-.26.79-.97,1.14-1.45.4-.44.57-1.19,1.01-1.58.44-.48.44-.88.88-1.67.18-.44.62-1.28.79-1.76.04-.66.66-1.23.7-1.76.13-.66.35-1.41.57-1.8.04-.53.4-1.1.48-1.8.09-.57.18-1.19.4-1.8.26-.7.09-1.19.35-1.76-.09-.35.26-1.1.22-1.67-.13-.66.26-.97.18-1.72.18-.7-.13-1.19.13-1.76-.04-.79-.04-1.28.09-1.76.09-.4.09-1.23.04-1.76,0-.44-.18-1.23.04-1.76.09-.44.09-.92-.09-1.58-.04-.66-.79-1.1-1.28-1.06-1.28.04-1.63,0-2.95.04-.79.04-1.19-.44-1.19-1.5.13-.35-.18-1.01,0-1.28.09-.79.26-1.41,1.19-1.45,1.23.09,2.38.13,3.34,0,.79-.04,1.67-.13,2.82,0,1.14-.18,1.8.09,2.86,0,.7-.04,1.98.22,2.86,0h2.82c.62.04.97-.09,1.32-.18.44.18.62.22.79.44.35.18.48.66.97.84.22.18.66.75.92.92.35.22.18.4.35.66-.26.13-.31.48-.7.79-.04.26-.66,1.28-.53,1.63-.26.35-.31.75-.35,1.45-.22.75-.13,1.19-.4,1.5-.04.44-.04.57-.26,1.06-.18.4-.26.7-.26,1.06-.18.62.04,1.28,1.14,1.28.31-.09.97-.09,1.54-.09.66,0,.66-.31,1.41-.31.44-.09.79.13.88.53.31.22.75.75,1.01.92.44.18.48.57,1.01,1.01.13.13.26.44.18.79-.13.48-.53.7-.75.84-.4.22-.31.66-.44,1.01-.31.97-.66,1.8-.62,2.64-.18.84-.44,1.23-.57,1.85-.22.79-.44,1.32-.62,1.85-.26.7-.4,1.45-.7,1.8-.4.53-.4,1.36-.79,1.76-.13.75-.62,1.01-1.06,1.98-.35.75-.18,1.85.31,2.33.48.22,1.19,1.14,1.76,1.36.7.26,1.19.88,1.58,1.1.62.18.97.53,1.67,1.1.53.44,1.06.4,1.06,1.06v.22c-.13,1.06-.75,1.19-1.23,2.16ZM105.37,67.35c-.35,0-.57.18-.92,0-.75-.04-1.28.09-1.54.57-.22.4-.7.4-.97.31-1.23.09-1.67-.22-2.2-.22-.4.09-1.06-.48-.92-1.01-.04-.48.18-.66.35-1.28.04-.44.4-1.23.53-1.58.31-.4.22-.97.44-1.54.09-.44.09-1.14.44-1.54-.09-.66.04-1.23.4-1.58.13-.53.4-1.28.48-2.16.22-.31.31-.44.04-.84-.18-.26-.22-.66-1.45-.48-.26.18-1.67-.18-2.2.04-.53-.18-.97.57-1.06,1.06.09.53,0,1.41,0,2.11-.04.92-.18,1.58-.09,2.2-.09.44.18.35.18.79.22.35.22.53.18,1.01.18.57.18,1.32.4,1.94.31.57.4,1.23.44,1.94,0,.53.35,1.01.53,1.85,0,.79.44,1.1.66,1.89.35.48.62,1.19.7,1.85.4.44.57,1.41.84,1.8.35.22.48,1.19.7,1.36.4.88,1.5.97,1.94.48.26-.44.26-.7.48-1.01.13-.44.22-.66.57-1.28,0-.31.48-.97.48-1.36.22-.79.92-2.33,1.06-3.34.31-1.36-.09-1.94-.48-1.98Z"/>
      </g>
      <g>
        <path class="cls-8" d="M68.41,85.92v.09c0,.35.09.66.09.92,0,.09,0,.18-.04.26,0,.88-.35,1.36-1.23,1.45-.35.09-.7.13-1.01.13-.4,0-.7-.04-.92-.09-.35,0-.62.04-.84.04-.35,0-.62-.04-1.1-.09-.75.09-1.19-.18-1.94-.04-.22.09-.53.13-.84.13-.4,0-.79-.04-1.06-.13-.22.09-.48.09-.79.09-.66,0-1.45-.13-2.07-.09-1.06.09-1.8.09-2.9,0-.92.09-1.8-.13-2.86,0-.84.04-2.11-.18-2.91,0-1.14-.04-2.07.18-2.9,0-.97-.18-2.02-.09-2.9,0-.7-.04-1.36.09-2.02.09-.31,0-.57,0-.88-.09-.79.22-1.8-.18-2.86,0-.48,0-1.23-.18-1.89,0l-1.89.04c-.53.09-.92.13-1.28.13-.26,0-.48-.04-.66-.09-.31.04-.7.09-1.14.09-.31,0-.57-.04-.84-.13-.7.04-1.19-.66-1.19-1.32v-.13c.04-.18.09-.44.09-.66,0-.31-.04-.66-.09-.92.13-.84.22-1.28,1.19-1.45.57-.22,1.28.13,1.98-.04.44-.09,1.32,0,1.94.04.57-.09,1.23.22,1.89.04.57.09,1.36.22,1.89,0,.57,0,1.28.09,2.2,0,.79.13,1.5.13,2.2,0,.88-.04,1.41.04,1.94,0s1.23-.31,1.67-.92c.35-.44.66-1.23.66-1.85,0-.97-.04-2.38,0-3.26.09-.97,0-2.2,0-3.12v-3.12c-.18-1.19.04-2.07,0-3.12-.04-1.23-.13-1.94,0-3.08-.09-1.14.09-2.02,0-3.12v-3.08c-.04-.88-.04-1.67,0-2.33,0-.62.18-1.67-.04-2.33-.09-.92.09-1.5,0-1.98-.09-.7.35-1.23,1.06-1.23h.13c.48,0,1.06.09,1.89.09.75.18,1.28-.09,1.8.13.26.09.66.18.79.48.13.35-.09.66-.22.79-.44.44-.35.62-.48.7-.26.79,0,1.85-.18,2.86.09.92.18,2.11,0,2.82.18.84-.04,1.63,0,2.77.04.57.26,1.14.7,1.58.57.66.92.92,1.36.79.66.09,1.85.09,2.46,0,.57.13,1.63-.04,2.42.04.66,0,1.58-.04,2.42,0,1.19-.04,2.02-.04,3.04-.04.4,0,.66-.04.97,0,.84-.13,1.19.84,1.23,1.45.04.44,0,1.01,0,1.5.04.75-.35,1.67-1.23,1.45-.7.18-1.58.13-2.07,0-.84.04-1.63.09-2.07,0-.79-.09-1.72.09-2.33,0-.75.22-1.58.22-2.38,0-.62,0-1.94.13-2.46,0-.35.04-.75.13-1.36.53-.26.22-.79.88-.7,1.14-.04.62-.09,1.58,0,2.02.04.84-.13,1.28,0,1.94-.22.79-.22,1.28,0,1.94-.04.57.04,1.19,0,1.94.13.66.13,1.32,0,1.94-.22.66.18,1.28.09,1.8-.04.4.35.92.66,1.32.4.48.97.7,1.45.57.7.13,1.63.04,2.6,0,.7.18,1.41-.09,2.46,0,.79.18,1.76-.09,2.42,0,.7.09,1.36-.04,1.89,0,.62.18,1.41,0,1.94-.04.53.04,1.32-.13,1.94-.04.57.13,1.36.22,1.94,0,.62-.04,1.23.57,1.23,1.41v.09c-.04.09-.04.22-.04.31Z"/>
        <path class="cls-8" d="M82.4,73.6c-.04.92-.22,2.24,0,2.99.09.88-.04,1.63,0,2.6.13.97-.13,1.94,0,2.55-.09.53.18,1.14.04,1.94-.09.53-.18,1.45,0,1.89.04.84.18,1.54.04,1.98-.18.79-.04,1.54,0,1.98-.09,1.06-.75,1.28-1.5,1.36h-1.63c-.92-.04-1.54-.66-1.45-1.36.13-.4-.09-.44,0-.75.04-.57.13-1.32,0-1.8.04-.75-.18-1.01.04-1.76-.13-1.19-.04-2.46,0-3.48.09-.7-.18-1.41,0-2.42.09-1.01.18-1.54,0-2.51-.18-.75,0-1.58,0-2.33-.18-.57.18-1.28-.31-1.8-.57-.48-1.1-.35-1.67-.4-.53,0-1.36.04-1.89.31-.22.31-.48.66-.75.66-.84-.04-.88-.31-.97-.66-.09-.35-.35-.75-.4-1.41-.31-.92-.57-1.45-.57-1.94,0-.09.04-.18.04-.31,0-.4.44-.79,1.14-.7.31.04.48,0,.7-.04.57.04,1.01.09,1.54-.26.35-.22.79-.97,1.28-1.54.31-.44.7-1.36.26-2.11-.31-.35-.92-.57-1.01-.88-.66-.75-1.28-.75-1.63-1.41-.66-.44-1.19-.84-1.72-1.28-.18-.09-.66-.57-.66-1.06v-.13c.09-.4.04-.62.31-.84.26-.22.44-.62.66-.88.04-.31.44-1.01.97-.92.48.18.97.13,1.54-.88.04-.53.26-.75.66-1.28.18-.57.48-.66.62-1.36.04-.62.53-.97.62-1.41.04-.48.4-1.45,1.36-1.5h.13c.26,0,.4.26.57.18.26.09.66.26,1.23.53.62.04.79.57,1.28.62.53.57.04,1.14-.22,1.23s-.44.18-.48.48c-.48.75-.53,1.19-.84,1.63-.22.57-.79,1.23-.84,1.67-.48.53-.66,1.1-.88,1.58-.35.75-.22,1.45.31,1.98.18.26.26.31.53.4.31.18.79-.18,1.06-.53.26-.31.35-.7.7-1.32.35-.7.66-1.28,1.01-2.02.44-.62.53-1.58,1.5-1.63.35-.04.48.26.75.22.26.4.7.35,1.28.57.22.04.84.35,1.32.62.22.13.53.48.4.92-.18.7-.75.44-1.14.88-.13.31-.4.62-.75,1.14-.22.44-.35.57-.62,1.14-.48.48-.62,1.19-1.14,1.94-.31.84-.84.88-1.23,1.89-.31.35-.92,1.14-1.19,1.72-.7.88-.44,1.67.22,1.58.4.09,1.19-.04,1.67-.13.53-.22.92-.18.84-.79-.04-.44-.44-.84-.4-1.14s.13-.84.84-1.06c.35-.13.48-.13.75-.4.18.04.4-.31.97-.31.7,0,.48.53.97.79.31.18.48.66.66,1.23.44.35.66,1.01.88,1.67.4.84.62,1.23.84,1.8.22.7.4.84.35,1.32.09.84-.66.97-.97,1.19-.53.13-.53.22-.97.44-.18.18-.48.18-.88.18-.84.18-.53-.66-1.23-1.28-.48-.4-1.19-.26-1.72-.13-.35.13-.88.13-1.14.44-.31.35-.13.88-.09,1.89ZM77.39,75.75c0,.53-.75.84-.75,1.41,0,.84-.09,1.63-.09,2.16.13.88-.26,2.07-.31,2.86-.31.92-.44,1.8-.48,2.9l-.35,1.58c-.18.62-.4,1.28-1.14.97-.48.09-1.28-.62-1.8-.7-.4-.22-.79-.53-.92-1.19-.09-.75.31-1.41.44-1.98-.04-.57.09-1.36.35-1.85-.04-.53,0-1.19.26-1.89-.18-.4.26-1.06.13-1.89,0-.48.26-1.14.09-1.94-.22-.53.09-1.76,1.19-1.5l1.8.35c1.01.04,1.58.18,1.58.7ZM84.25,80.02c-.09-.79-.31-1.5-.7-2.42-.44-1.06-.66-1.89-.62-2.11-.13-.48.26-.79.88-1.1.26.09.22-.4.66-.31.31.04.53-.04.7-.18.44-.09.66.09,1.14.66.4.53.26.97.62,1.28.35.4.4,1.14.66,1.67.26.79.4,1.67.35,1.98-.04.62-.62.75-.88,1.01-.4.35-.7.4-1.01.44-.22.04-.48.18-.7.22-.75-.13-1.01-.53-1.1-1.14ZM111.49,89.18c-.26.48-.31.92-1.14,1.06-.62.09-1.28-.44-1.85-.84-.53-.53-.97-.88-1.54-1.14-.66-.48-.97-.66-1.5-1.14-.62-.26-1.14-1.01-1.5-1.32-.48-.62-2.02-.4-2.55,0-.62.4-1.01.75-1.54,1.23-.35.31-1.14.79-1.58,1.1-.62.35-1.06.57-1.72.97-.48.26-.84.35-1.5.84-.79.44-1.14.62-1.67.53-.44.22-.92-.44-1.1-.7-.31-1.01-1.23-1.67-1.01-2.29.04-.75.4-1.06,1.1-1.19.57-.44,1.28-.53,2.11-1.06.7-.48,1.32-.62,1.94-1.23.48-.31.79-.57,1.19-.79.22-.4.7-.53.88-.84.09-.18.48-.7.62-1.5.04-.35,0-1.1-.44-1.41-.26-.18-.4-.79-.7-1.32-.31-.26-.53-.75-.66-1.28-.22-.62-.35-.97-.57-1.32-.31-.66-.7-.7-.97-.62-.44.09-.75.18-1.01,1.1-.22.4-.31.53-.22.75-.22.7-.66,1.63-.79,2.29-.53.88-.48,1.36-.97,2.2-.13.22-.66.79-.92,1.67-.31.26-.26.75-.7,1.28-.13.62-.66.97-.84,1.36-.26.53-.4.79-.88,1.28-.35.35-.79.88-.88,1.1-.66.75-1.28,1.23-1.45,1.06-.79-.09-1.19-.88-1.5-1.19-.57-.35-1.01-1.01-1.1-1.76.18-.57.7-1.19.92-1.58.26-.26.79-.97,1.14-1.45.4-.44.57-1.19,1.01-1.58.44-.48.44-.88.88-1.67.18-.44.62-1.28.79-1.76.04-.66.66-1.23.7-1.76.13-.66.35-1.41.57-1.8.04-.53.4-1.1.48-1.8.09-.57.18-1.19.4-1.8.26-.7.09-1.19.35-1.76-.09-.35.26-1.1.22-1.67-.13-.66.26-.97.18-1.72.18-.7-.13-1.19.13-1.76-.04-.79-.04-1.28.09-1.76.09-.4.09-1.23.04-1.76,0-.44-.18-1.23.04-1.76.09-.44.09-.92-.09-1.58-.04-.66-.79-1.1-1.28-1.06-1.28.04-1.63,0-2.95.04-.79.04-1.19-.44-1.19-1.5.13-.35-.18-1.01,0-1.28.09-.79.26-1.41,1.19-1.45,1.23.09,2.38.13,3.34,0,.79-.04,1.67-.13,2.82,0,1.14-.18,1.8.09,2.86,0,.7-.04,1.98.22,2.86,0h2.82c.62.04.97-.09,1.32-.18.44.18.62.22.79.44.35.18.48.66.97.84.22.18.66.75.92.92.35.22.18.4.35.66-.26.13-.31.48-.7.79-.04.26-.66,1.28-.53,1.63-.26.35-.31.75-.35,1.45-.22.75-.13,1.19-.4,1.5-.04.44-.04.57-.26,1.06-.18.4-.26.7-.26,1.06-.18.62.04,1.28,1.14,1.28.31-.09.97-.09,1.54-.09.66,0,.66-.31,1.41-.31.44-.09.79.13.88.53.31.22.75.75,1.01.92.44.18.48.57,1.01,1.01.13.13.26.44.18.79-.13.48-.53.7-.75.84-.4.22-.31.66-.44,1.01-.31.97-.66,1.8-.62,2.64-.18.84-.44,1.23-.57,1.85-.22.79-.44,1.32-.62,1.85-.26.7-.4,1.45-.7,1.8-.4.53-.4,1.36-.79,1.76-.13.75-.62,1.01-1.06,1.98-.35.75-.18,1.85.31,2.33.48.22,1.19,1.14,1.76,1.36.7.26,1.19.88,1.58,1.1.62.18.97.53,1.67,1.1.53.44,1.06.4,1.06,1.06v.22c-.13,1.06-.75,1.19-1.23,2.16ZM105.37,67.35c-.35,0-.57.18-.92,0-.75-.04-1.28.09-1.54.57-.22.4-.7.4-.97.31-1.23.09-1.67-.22-2.2-.22-.4.09-1.06-.48-.92-1.01-.04-.48.18-.66.35-1.28.04-.44.4-1.23.53-1.58.31-.4.22-.97.44-1.54.09-.44.09-1.14.44-1.54-.09-.66.04-1.23.4-1.58.13-.53.4-1.28.48-2.16.22-.31.31-.44.04-.84-.18-.26-.22-.66-1.45-.48-.26.18-1.67-.18-2.2.04-.53-.18-.97.57-1.06,1.06.09.53,0,1.41,0,2.11-.04.92-.18,1.58-.09,2.2-.09.44.18.35.18.79.22.35.22.53.18,1.01.18.57.18,1.32.4,1.94.31.57.4,1.23.44,1.94,0,.53.35,1.01.53,1.85,0,.79.44,1.1.66,1.89.35.48.62,1.19.7,1.85.4.44.57,1.41.84,1.8.35.22.48,1.19.7,1.36.4.88,1.5.97,1.94.48.26-.44.26-.7.48-1.01.13-.44.22-.66.57-1.28,0-.31.48-.97.48-1.36.22-.79.92-2.33,1.06-3.34.31-1.36-.09-1.94-.48-1.98Z"/>
      </g>
    </g>
  </g>
</svg>