<?xml version="1.0" encoding="UTF-8"?>
<svg id="_レイヤー_2" data-name="レイヤー 2" xmlns="http://www.w3.org/2000/svg" xmlns:xlink="http://www.w3.org/1999/xlink" viewBox="0 0 142.54 141.48">
  <defs>
    <style>
      .cls-1 {
        fill: #9c5e24;
      }

      .cls-1, .cls-2, .cls-3, .cls-4, .cls-5, .cls-6, .cls-7, .cls-8, .cls-9 {
        stroke-width: 0px;
      }

      .cls-2 {
        fill: url(#_名称未設定グラデーション_158);
      }

      .cls-3 {
        fill: url(#_名称未設定グラデーション_112);
      }

      .cls-4 {
        fill: #a16023;
      }

      .cls-5 {
        fill: url(#_名称未設定グラデーション_112-3);
      }

      .cls-6 {
        fill: url(#_名称未設定グラデーション_112-5);
      }

      .cls-7 {
        fill: url(#_名称未設定グラデーション_112-4);
      }

      .cls-8 {
        fill: url(#_名称未設定グラデーション_112-2);
      }

      .cls-9 {
        fill: #fff;
      }
    </style>
    <linearGradient id="_名称未設定グラデーション_112" data-name="名称未設定グラデーション 112" x1="29.56" y1="127.74" x2="66.85" y2="127.74" gradientTransform="translate(-25.53 11.47) rotate(-12.3)" gradientUnits="userSpaceOnUse">
      <stop offset="0" stop-color="#f7c57f"/>
      <stop offset="1" stop-color="#a25b0a"/>
    </linearGradient>
    <linearGradient id="_名称未設定グラデーション_112-2" data-name="名称未設定グラデーション 112" x1="-11.18" y1="118.85" x2="26.11" y2="118.85" gradientTransform="translate(125.95 11.47) rotate(-167.7) scale(1 -1)" xlink:href="#_名称未設定グラデーション_112"/>
    <linearGradient id="_名称未設定グラデーション_112-3" data-name="名称未設定グラデーション 112" x1="0" y1="108.51" x2="71.24" y2="108.51" gradientTransform="matrix(1,0,0,1,0,0)" xlink:href="#_名称未設定グラデーション_112"/>
    <linearGradient id="_名称未設定グラデーション_112-4" data-name="名称未設定グラデーション 112" x1="-418.12" y1="108.51" x2="-346.88" y2="108.51" gradientTransform="translate(-275.58) rotate(-180) scale(1 -1)" xlink:href="#_名称未設定グラデーション_112"/>
    <linearGradient id="_名称未設定グラデーション_158" data-name="名称未設定グラデーション 158" x1="11.11" y1="70.74" x2="131.38" y2="70.74" gradientTransform="translate(70.89 -29.66) rotate(45)" gradientUnits="userSpaceOnUse">
      <stop offset="0" stop-color="#fef7e8"/>
      <stop offset="1" stop-color="#f8c8a8"/>
    </linearGradient>
    <linearGradient id="_名称未設定グラデーション_112-5" data-name="名称未設定グラデーション 112" x1=".51" y1="70.74" x2="141.98" y2="70.74" gradientTransform="matrix(1,0,0,1,0,0)" xlink:href="#_名称未設定グラデーション_112"/>
  </defs>
  <g id="_レイヤー_1-2" data-name="レイヤー 1">
    <g>
      <polygon class="cls-3" points="41.86 107.14 29.18 123.6 71.24 141.48 41.86 107.14"/>
      <polygon class="cls-8" points="100.26 107.14 112.94 123.6 70.88 141.48 100.26 107.14"/>
      <polygon class="cls-5" points="15.89 75.55 0 88.93 71.24 141.48 15.89 75.55"/>
      <polygon class="cls-7" points="126.65 75.55 142.54 88.93 71.3 141.48 126.65 75.55"/>
      <g>
        <g>
          <rect class="cls-2" x="28.72" y="28.22" width="85.04" height="85.04" transform="translate(-29.15 71.1) rotate(-45)"/>
          <path class="cls-6" d="M71.24,141.48L.51,70.74,71.24,0l70.74,70.74-70.74,70.74ZM21.72,70.74l49.53,49.53,49.53-49.53-49.53-49.53-49.53,49.53Z"/>
        </g>
        <g>
          <g>
            <path class="cls-4" d="M41.47,74.11c-.4-.57-1.06-.97-1.58-.88-.35.04-.7.44-.66,1.06.04.48-.13.75,0,1.06-.04.62.18,1.28,0,1.8-.04.75-.22,1.28,0,1.76.13.7-.18,1.23,0,1.94.04.66,0,1.28.04,1.89-.22.79-.04,1.23.04,1.98.04.66-.13,1.36-.04,1.98-.18.92-.35,1.32-1.45,1.36-.13.04-.26.04-.35.04h-.09c-.31,0-.57-.09-.84-.09-.09,0-.18,0-.26.04h-.22c-.7,0-1.28-.62-1.23-1.36-.13-.84-.26-1.41,0-1.98-.09-.66.13-1.5,0-1.98,0-.4-.13-1.1.04-1.89-.22-.7.18-1.19,0-1.94-.13-.92-.09-1.67,0-2.33-.13-.75.13-1.63,0-2.33.18-.18-.04-1.76,0-2.51.04-.79-.4-1.41-1.28-.66-.44.35-.75.35-.75.7-.31.4-.84.97-1.41,1.1-.57.48-.7.48-1.1.48-.66-.09-1.14-.7-1.36-1.32-.18-.4-.79-1.23-.92-1.98-.04-.04-.09-.13-.09-.18,0-.26.26-.53.53-.75.62-.26.88-.7,1.54-1.23.57-.31,1.19-.84,1.5-1.14.31-.4.62-.48,1.19-1.06.22-.31.53-.79,1.1-1.01.26-.09.53-.7,1.01-.97.18-.44.88-.92,1.06-1.14.26-.18.7-.79,1.01-1.1.18-.31.53-.92.92-1.19.18-.4.35-.66.62-.84.31-.53.53-1.5-.48-1.41-.44-.04-1.58.04-2.02,0-.84-.09-1.06-.09-1.85,0-.7.18-1.41-.04-1.85,0-.92.04-1.45,0-2.24-.04-.75.04-1.5-.4-1.41-1.45.09-.44,0-.62,0-1.28-.04-.97.66-1.5,1.36-1.45.66.04,1.45,0,2.29,0,.44-.09.88.09,1.45,0,.7.22,1.1-.66,1.19-1.14,0-.22.13-1.06,0-1.36-.09-.79,0-1.63,0-2.95-.09-.75.48-1.14,1.23-1.14,1.01.26,1.94,0,3.17.22.44-.04.92.04.84.48-.22.66-.88.66-1.1,1.98.09.79.09,1.58.04,2.11.13.97.4,1.63,1.19,1.8.48,0,.66.09,1.63,0,.35-.18.92-.66,1.06-.44.35,0,.66.13.88.44.35.57.88.48,1.06.97.22.57.75.35,1.06,1.01.18.35.35.62.26,1.06s-.44.62-.92.7c-.53.26-1.14.92-1.36,1.36-.22.26-.7.97-.84,1.32-.4.35-.66.75-.84,1.32-.31.35-.62.92-.88,1.19-.26.22-.75.62-.88,1.14-.35.62-.7,1.06-.92,1.41-.31.48-.31,1.1-.31,1.5-.18.44-.04.92.48,1.14.31.13,1.23-.31,1.41-.66.62-.75.88-1.19,1.45-1.94.62-.75.84-1.36,1.45-2.02.35-.62.62-.53,1.01-.53.31-.04.35.4.84.35.31.48.88.7,1.19.79.4.22,1.01.75,1.28.88.04.35.53.31.4.62.09.79-.75.35-1.14.66-.22.35-.53.44-1.01.92-.53.44-.66.57-.88.92-.4.53-.84.7-.92,1.01-.57.57-.79,1.58-.18,2.07.35.18.44.48.92.84.62.44,1.5.97,1.45,1.89,0,.35-.31.62-.48,1.06-.4.22-.75.7-1.06,1.14-.44.48-.53.62-1.06.57-.57.04-1.36-.79-1.8-1.41-.31-.4-.62-.75-1.1-1.01ZM69.06,54.57c0,.62-.22.79-.62,1.1-.4.31-.62,1.01-.4,1.28,0,.88-.04,2.07-.04,3.17-.13.79-.09,1.58-.04,2.51.09.84,0,1.72,0,2.95.09.92-.13,2.02-.04,3.26.04,1.23-.09,2.42-.04,3.39.04.53.09.97-.09,1.72.04.48,0,1.36-.09,1.67.09,1.23-.09,1.98-.22,3.17-.26.84-.35,2.16-.44,2.82-.22,1.06-.18,1.45-.57,2.33-.53,1.01-.92,1.45-1.19,2.02-.57.75-1.14,1.06-1.72,1.23-.79.44-1.54.31-2.11.57-.88-.04-1.63.4-2.33.18-.57-.09-.88.09-1.5,0-.7.13-1.14-.13-1.36-1.06-.18-.57-.13-1.28-.31-1.76-.26-.44-.18-.75-.22-1.14-.04-.44.53-.97.92-.92.57.09.79.18,1.5,0,.66.09,1.58-.04,2.38-.18.79.04,1.1-.79,1.58-1.45.31-.75.4-1.5.57-2.6l.31-2.64c.04-.7.04-1.67.18-2.24.09-.7.22-1.41.04-2.2.13-.92.09-1.63.04-2.24-.13-.66.22-1.58.04-2.24,0-.79.22-1.54.04-2.07,0-.57.09-1.45.04-2.07-.04-.57-.13-1.28.04-2.07,0-.75.13-1.36,0-2.07-.09-.31.04-.88-.04-1.14-.26-.57-.62-.84-1.1-1.14-.4-.09-1.01-.26-1.58-.18-.66.04-1.23-.04-1.67,0-.26.22-.84.31-1.1.88-.13.4-.26.84-.26,1.36-.18.62.04,1.89,0,2.68.09.79-.22,2.07-.04,2.9.09,1.06.04,1.85-.13,2.95,0,.79-.35,2.11-.31,2.9-.26,1.14-.26,1.94-.57,2.86-.35.84-.57,1.58-.62,2.11-.13.62-.62,1.58-.88,2.02-.26.7-.75,1.45-1.01,1.89-.44.75-.97,1.1-1.23,1.76-.57.75-.88,1.06-1.41,1.67-.44.7-.79.97-1.5,1.54-.62.44-1.28.88-1.67,1.45-.44.48-1.01.79-1.8,1.32-.66.35-.97.97-1.8.88-.88.13-1.23-.62-1.41-1.23-.18-.48-1.14-.92-1.1-1.8-.22-.18.04-.88.53-1.06.4-.26.88-.44,1.41-1.01.48-.22,1.36-.62,1.76-1.23.35-.26.97-.97,1.58-1.45.44-.48.84-1.14,1.41-1.63.4-.75.75-.92,1.23-1.76.48-.48.57-1.19,1.01-1.89.4-.26.35-.88.57-1.41.22-.62.13-.7.44-1.41.18-.35.26-.92.31-1.45-.09-.4,0-.84.26-1.5-.09-.53.09-1.41.22-1.94-.18-.84.22-1.14.13-1.94-.13-.53-.09-1.32.09-1.94-.04-.79.18-1.36,0-1.89-.04-.7-.04-1.67,0-2.51-.13-.88-.4-1.5-.79-1.85-.31-.26-.92-.26-1.28-.31l-2.16.04c-.7-.04-1.23-.66-1.19-1.5.04-.57.04-1.06,0-1.45-.04-.66.44-1.23,1.19-1.45.62-.13,1.28.18,1.94,0,.75.18,1.54,0,2.02,0,.75-.18,1.14.18,1.98.04.88.13,1.67-.09,2.51,0,.88.13,1.72-.18,2.46,0,.66-.09,1.63.18,2.51,0,.7.22,1.45.18,2.24-.04.35-.09.97-.4,1.28-.44.57-.09.66.4.97.44.35.13.57.75.97.88.22.44.48.44.97.92.22.13.31.26.31.62Z"/>
            <path class="cls-1" d="M37.46,90.61c-.39,0-.67-.04-.86-.07-.11.01-.22.02-.33.02h-.22c-1.01,0-2-.43-2.7-1.17-.64-.67-1-1.57-1.03-2.49v-.03c-.12-.71-.26-1.56-.02-2.49,0-.32.02-.61.04-.86,0-.11.02-.22.02-.32-.03-.15-.04-.31-.04-.46v-.19c-.04-.39-.08-.98,0-1.67-.07-.6,0-1.09.06-1.42,0-.04.01-.07.02-.11,0-.03,0-.06-.01-.09-.16-1.11-.12-2.03-.04-2.69-.04-.47-.01-.9.02-1.28-.64.41-1.23.56-2.03.56-.11,0-.22,0-.33-.02-1.46-.2-2.72-1.27-3.33-2.81-.02-.04-.07-.11-.11-.19-.27-.46-.65-1.11-.86-1.87-.15-.35-.24-.72-.24-1.09,0-1.48,1.08-2.38,1.43-2.67.18-.15.39-.28.61-.37.03-.03.11-.12.2-.2.22-.21.46-.44.77-.68.12-.09.24-.18.38-.25.24-.13.6-.42.84-.64.31-.37.62-.6.84-.77.08-.06.18-.13.29-.23.31-.42.78-1.01,1.54-1.44.15-.18.34-.4.6-.62.32-.43.69-.76.97-1.01l.11-.09c.09-.1.19-.19.29-.27.03-.03.05-.06.08-.09-.75.14-1.39.07-1.84.03-.07,0-.13-.01-.19-.02h-.03c-.95.05-1.54.01-2.23-.03h-.16c-1.13.02-2.12-.4-2.84-1.14-.76-.78-1.13-1.86-1.03-3.03,0-.07.01-.14.03-.21v-.08c-.02-.19-.03-.41-.04-.72-.04-1.13.37-2.17,1.14-2.93.76-.75,1.81-1.13,2.88-1.07.38.03.8.01,1.24,0,.23,0,.46,0,.7-.01.11-.01.21-.02.31-.02-.04-.57-.03-1.11,0-1.72,0-.33.02-.69.02-1.11-.07-.95.23-1.84.85-2.53.7-.79,1.72-1.22,2.89-1.22.21,0,.42.03.63.08.2.05.51.05.91.04.48,0,1.07-.01,1.77.08.96-.01,1.88.33,2.48.99.61.67.85,1.58.67,2.49-.02.1-.05.2-.08.3-.25.75-.68,1.23-.94,1.49.02.3.03.61.04.9.49-.22,1.12-.38,1.85-.21.05.01.11.03.16.04.76.14,1.43.51,1.96,1.07.47-1.05,1.42-1.89,2.66-2.26.06-.02.12-.03.18-.05.7-.15,1.31-.08,1.72-.03.07,0,.15.02.22.03.36-.08.73-.07,1.09.01.13.03.5,0,.72-.02.16-.01.31-.03.45-.03.74-.12,1.32-.03,1.68.04.07.01.13.03.21.03.25-.04.5-.04.75,0,.21.03.49.01.82-.01.44-.03.98-.07,1.58,0,.04,0,.07,0,.11.01.13.02.4,0,.63-.03.45-.04.98-.09,1.58-.01.39-.02.74.02,1.07.04.28.02.67.05.83.02.41-.08.83-.06,1.23.06.23.07.58,0,.83-.07.11-.03.22-.08.33-.12.38-.15.8-.32,1.27-.38.92-.14,1.78.1,2.53.72.57.3.93.72,1.15,1,.25.17.48.39.65.64.15.11.32.25.51.42.61.46,1.22,1.25,1.22,2.56s-.52,2.08-1.01,2.58c0,.38-.01.81-.02,1.26-.01.55-.02,1.14-.02,1.71,0,.14-.01.27-.03.41-.08.5-.05,1.11-.02,1.88.07.65.05,1.32.03,2.03,0,.32-.02.66-.02,1.03.04.59,0,1.16-.02,1.71-.03.51-.06.99-.03,1.46.03.82,0,1.51-.02,2.11-.02.48-.04.93-.02,1.34.04.49.1,1.12-.07,2.03.01.48,0,1.1-.09,1.64.04,1.02-.06,1.8-.16,2.55-.03.23-.06.47-.09.73-.02.16-.05.32-.1.48-.13.4-.22,1.26-.27,1.77-.03.24-.05.45-.07.63,0,.06-.02.12-.03.18-.06.28-.09.5-.13.7-.1.61-.2,1.23-.61,2.15-.02.04-.04.09-.06.13-.33.63-.62,1.08-.83,1.41-.12.18-.22.33-.3.5-.08.17-.17.33-.28.47-.75.98-1.64,1.64-2.73,2.02-.76.37-1.44.47-1.9.54-.08.01-.16.02-.23.03-.34.14-.71.2-1.08.19-.07,0-.3.04-.46.08-.52.11-1.28.26-2.14.08-.02,0-.05,0-.08.01-.23.02-.56.05-.97.03-1.84.17-3.32-.94-3.82-2.92-.14-.48-.19-.92-.22-1.28,0-.09-.02-.17-.03-.25-.33-.72-.34-1.33-.35-1.66-.51.7-1.02,1.11-1.59,1.57l-.12.1s-.08.06-.12.09l-.17.12c-.31.22-.79.56-.9.72-.06.09-.13.18-.21.26-.56.62-1.16,1-1.79,1.41l-.48.31c-.07.05-.14.09-.21.13-.06.04-.11.09-.17.14-.45.36-1.33,1.09-2.76,1.04-1.19.08-2.52-.39-3.35-1.84-.4.93-1.26,1.99-3.18,2.16-.28.05-.53.06-.73.06ZM37.39,90.3s0,0,0,0c0,0,0,0,0,0ZM62.49,90.03s0,0,0,0c0,0,0,0,0,0ZM43.55,85.97s0,0,0,0c0,0,0,0,0,0ZM64.29,82.64c-.05.09-.11.18-.17.26-.07.1-.14.21-.2.31-.3.47-.89,1.39-1.92,1.87.14-.02.3-.05.34-.07.15-.08.31-.15.48-.2.11-.03.2-.06.34-.21.15-.29.32-.54.48-.79.16-.25.35-.54.57-.95.03-.07.06-.14.08-.2ZM32.41,83.39s0,0,0,0c0,0,0,0,0,0ZM41.67,80.33c.02.11.04.23.05.35.01.2.02.4.02.6.02-.01.04-.02.06-.03.26-.15.35-.2.47-.33.23-.24.5-.44.8-.58.18-.08.59-.27.75-.4.15-.21.33-.4.54-.56.08-.07.21-.2.35-.34-.12,0-.26,0-.4,0-1.05,0-1.95-.54-2.65-1.17,0,.06-.01.12-.02.18,0,.06-.02.12-.02.17.02.08.04.15.05.23.13.72.06,1.31.01,1.7,0,.06-.02.12-.02.18ZM56.6,80.54c.11,0,.22,0,.32.02.04,0,.07,0,.1.01l.27.04c.07.01.13.02.19.03-.04,0,0-.02.05-.03.31-.08.63-.09.94-.05.14.02.48.01,1.26-.1.04-.07.09-.14.13-.21.1-.33.17-.74.27-1.41l.06-.37.29-2.52c0-.16.02-.33.02-.5.03-.66.06-1.34.18-1.95l.02-.16c.07-.5.1-.82.05-1.07-.07-.29-.08-.6-.03-.89.09-.64.07-1.13.03-1.6-.09-.63-.02-1.21.04-1.67.02-.13.04-.25.04-.37-.03-.16-.05-.33-.05-.5,0-.39.04-.77.07-1.13.01-.13.03-.25.04-.36-.04-.19-.07-.38-.07-.58,0-.25.01-.56.03-.88.02-.35.04-.78.02-1.01v-.16c-.06-.56-.13-1.39.04-2.35,0-.22.02-.42.03-.63.02-.29.03-.52.01-.68-.04-.16-.06-.32-.07-.47-.01,0-.03,0-.04,0-.25.02-.49.02-.72.02-.01.1-.03.21-.05.31,0,.18.01.58.03.85.02.39.05.8.04,1.2.04.52,0,1.03-.05,1.53-.03.29-.07.78-.04.94.02.1.03.18.04.29.1,1.17.06,2.13-.13,3.38-.02.49-.1,1-.18,1.5-.05.32-.14.87-.13,1.05,0,.22-.01.48-.06.7-.1.41-.15.78-.2,1.11-.09.61-.19,1.24-.43,1.98-.02.06-.04.12-.07.18-.31.74-.42,1.2-.43,1.35,0,.11-.02.21-.05.32-.22,1-.81,2.13-1.07,2.58-.31.74-.72,1.43-1.01,1.9l-.12.19c-.04.07-.09.14-.13.21.16-.03.33-.04.49-.04ZM43.76,80.02s0,0,0,0c0,0,0,0,0,0ZM41.52,74.36s0,0,0,0c0,0,0,0,0,0ZM35.21,72.98s0,0,0,0c0,0,0,0,0,0ZM47.21,70.01c.59.42,1.64,1.21,2.07,2.5.02-.05.04-.1.05-.15.04-.11.05-.19.07-.26.08-.34.17-.69.42-1.27,0-.01.01-.03.02-.04.01-.04.04-.15.06-.36-.06-.7.07-1.35.26-1.93,0-.22.02-.46.04-.71-.48.4-1,.56-1.4.62-.06.05-.12.1-.18.14-.08.06-.18.13-.29.25-.05.05-.11.1-.17.15-.17.14-.27.22-.35.31-.04.06-.09.14-.13.2-.16.22-.33.4-.48.55ZM33.09,72.48h0s0,0,0,0ZM33.1,72.48s0,0,0,0c0,0,0,0,0,0ZM34.26,68.24c.64,0,1.14.2,1.35.31,1.16.58,1.83,1.85,1.75,3.33,0,.06,0,.14,0,.25.5-.73,1.26-1.23,2.16-1.36.79-.12,1.6.04,2.33.43-.06-.24-.1-.49-.12-.74,0-.16,0-.32,0-.48-.94.5-2.08.69-3.01.29-1.55-.64-2.34-2.22-1.99-3.81.01-.37.05-.85.2-1.37-.19.29-.43.54-.72.73-.02.03-.05.06-.07.08-.24.3-.61.77-1.25,1.06-.03.04-.06.09-.09.12,0,0-.06.08-.06.08-.08.11-.17.22-.27.32-.39.39-.71.63-.92.79-.03.03-.07.05-.1.07.28-.08.55-.11.8-.11ZM49.88,70.71s0,.02-.01.03v-.03ZM46.54,70.72h0s0,0,0,0ZM47.17,69.65s0,0,0,0c0,0,0,0,0,0ZM29.81,68.3h0,0ZM33.5,68.3s0,0,0,0c0,0,0,0,0,0ZM60.88,67.89h0s0,0,0,0ZM38.88,66.17s0,0,0,0c0,0,0,0,0,0ZM50.36,63.37s.1.09.14.14c.03-.25.07-.5.12-.72,0-.34.03-.63.05-.86,0-.07.01-.13.02-.19-.03-.14-.05-.27-.06-.41-.04-.66-.05-1.51-.02-2.31l-1.66.03c-.07,0-.14,0-.21,0-.31-.02-.6-.07-.88-.16-.35.4-.86.76-1.58.99-.07.07-.16.17-.2.23-.06.13-.12.22-.2.32.23.07.47.18.71.34.46.14.87.41,1.18.79.16.05.34.13.48.21.35.19.69.45.99.67.1.08.2.15.28.21.33.18.61.43.82.73ZM49.45,62.59s.04.02.06.03c-.02-.01-.04-.02-.06-.03ZM50.75,61.96s0,0,0,0c0,0,0,0,0,0ZM33.99,60.94s-.05.06-.07.08c.02-.03.04-.05.07-.08ZM34.46,60.53s-.05.04-.08.06c.03-.02.05-.04.08-.06h0ZM32.47,60.54s-.03,0-.04,0c.01,0,.03,0,.04,0ZM60.08,59.39s0,.03-.01.05c0-.02,0-.03.01-.05ZM40.19,56.33c.2.18.37.38.52.61.29.45.44.96.47,1.5.22-.36.45-.68.61-.88.26-.44.61-.87,1.01-1.25-.05-.03-.1-.07-.15-.1-.18.06-.37.1-.56.12-.8.07-1.23.05-1.63.02-.08,0-.16,0-.26-.01ZM53.61,54.66c.12.08.24.16.36.26.66.58,1.12,1.34,1.4,2.3.06-.22.12-.42.19-.62.03-.09.06-.18.1-.26.4-.87,1.03-1.36,1.5-1.65-.03,0-.06,0-.1-.01-.17-.01-.41,0-.69.02-.43.03-.95.06-1.53.01-.51.04-.92,0-1.23-.06ZM63.97,54.81c.54.38,1.07.86,1.5,1.61,0-.04,0-.09.01-.13.06-.52.22-1.02.48-1.48-.15-.12-.27-.25-.37-.36-.15.05-.29.1-.4.12-.4.11-.81.19-1.2.23ZM42.52,55.69s.03.07.04.1c-.01-.03-.03-.07-.04-.1ZM36.01,55.55c.05,0,.11.01.17.02.13,0,.41,0,.68-.01.42-.01.79-.02,1.11,0,.06,0,.12,0,.18,0-.42-.34-.82-.81-1.11-1.47-.2.47-.52,1.02-1.03,1.47ZM40.8,54.72h0s0,0,0,0ZM40.8,54.71s0,0,0,0c0,0,0,0,0,0ZM40.79,54.71s0,0,0,0c0,0,0,0,0,0ZM40.79,54.7s0,0,0,0c0,0,0,0,0,0ZM40.79,54.7s0,0,0,0c0,0,0,0,0,0ZM40.79,54.69h0s0,0,0,0ZM40.78,54.69s0,0,0,0c0,0,0,0,0,0ZM40.78,54.68s0,0,0,0c0,0,0,0,0,0ZM40.78,54.68s0,0,0,0c0,0,0,0,0,0ZM40.78,54.67s0,0,0,0c0,0,0,0,0,0ZM40.77,54.67s0,0,0,0c0,0,0,0,0,0ZM67.27,54.57h1.79-1.79ZM68.57,50.66s0,0,0,0c0,0,0,0,0,0ZM50.2,49.74s0,0,0,0c0,0,0,0,0,0Z"/>
          </g>
          <g>
            <path class="cls-4" d="M83.27,70.81c-.04.92-.22,2.24,0,2.99.09.88-.04,1.63,0,2.6.13.97-.13,1.94,0,2.55-.09.53.18,1.14.04,1.94-.09.53-.18,1.45,0,1.89.04.84.18,1.54.04,1.98-.18.79-.04,1.54,0,1.98-.09,1.06-.75,1.28-1.5,1.36h-1.63c-.92-.04-1.54-.66-1.45-1.36.13-.4-.09-.44,0-.75.04-.57.13-1.32,0-1.8.04-.75-.18-1.01.04-1.76-.13-1.19-.04-2.46,0-3.48.09-.7-.18-1.41,0-2.42.09-1.01.18-1.54,0-2.51-.18-.75,0-1.58,0-2.33-.18-.57.18-1.28-.31-1.8-.57-.48-1.1-.35-1.67-.4-.53,0-1.36.04-1.89.31-.22.31-.48.66-.75.66-.84-.04-.88-.31-.97-.66s-.35-.75-.4-1.41c-.31-.92-.57-1.45-.57-1.94,0-.09.04-.18.04-.31,0-.4.44-.79,1.14-.7.31.04.48,0,.7-.04.57.04,1.01.09,1.54-.26.35-.22.79-.97,1.28-1.54.31-.44.7-1.36.26-2.11-.31-.35-.92-.57-1.01-.88-.66-.75-1.28-.75-1.63-1.41-.66-.44-1.19-.84-1.72-1.28-.18-.09-.66-.57-.66-1.06v-.13c.09-.4.04-.62.31-.84.26-.22.44-.62.66-.88.04-.31.44-1.01.97-.92.48.18.97.13,1.54-.88.04-.53.26-.75.66-1.28.18-.57.48-.66.62-1.36.04-.62.53-.97.62-1.41.04-.48.4-1.45,1.36-1.5h.13c.26,0,.4.26.57.18.26.09.66.26,1.23.53.62.04.79.57,1.28.62.53.57.04,1.14-.22,1.23-.26.09-.44.18-.48.48-.48.75-.53,1.19-.84,1.63-.22.57-.79,1.23-.84,1.67-.48.53-.66,1.1-.88,1.58-.35.75-.22,1.45.31,1.98.18.26.26.31.53.4.31.18.79-.18,1.06-.53.26-.31.35-.7.7-1.32.35-.7.66-1.28,1.01-2.02.44-.62.53-1.58,1.5-1.63.35-.04.48.26.75.22.26.4.7.35,1.28.57.22.04.84.35,1.32.62.22.13.53.48.4.92-.18.7-.75.44-1.14.88-.13.31-.4.62-.75,1.14-.22.44-.35.57-.62,1.14-.48.48-.62,1.19-1.14,1.94-.31.84-.84.88-1.23,1.89-.31.35-.92,1.14-1.19,1.72-.7.88-.44,1.67.22,1.58.4.09,1.19-.04,1.67-.13.53-.22.92-.18.84-.79-.04-.44-.44-.84-.4-1.14s.13-.84.84-1.06c.35-.13.48-.13.75-.4.18.04.4-.31.97-.31.7,0,.48.53.97.79.31.18.48.66.66,1.23.44.35.66,1.01.88,1.67.4.84.62,1.23.84,1.8.22.7.4.84.35,1.32.09.84-.66.97-.97,1.19-.53.13-.53.22-.97.44-.18.18-.48.18-.88.18-.84.18-.53-.66-1.23-1.28-.48-.4-1.19-.26-1.72-.13-.35.13-.88.13-1.14.44-.31.35-.13.88-.09,1.89ZM78.25,72.97c0,.53-.75.84-.75,1.41,0,.84-.09,1.63-.09,2.16.13.88-.26,2.07-.31,2.86-.31.92-.44,1.8-.48,2.9l-.35,1.58c-.18.62-.4,1.28-1.14.97-.48.09-1.28-.62-1.8-.7-.4-.22-.79-.53-.92-1.19-.09-.75.31-1.41.44-1.98-.04-.57.09-1.36.35-1.85-.04-.53,0-1.19.26-1.89-.18-.4.26-1.06.13-1.89,0-.48.26-1.14.09-1.94-.22-.53.09-1.76,1.19-1.5l1.8.35c1.01.04,1.58.18,1.58.7ZM85.11,77.24c-.09-.79-.31-1.5-.7-2.42-.44-1.06-.66-1.89-.62-2.11-.13-.48.26-.79.88-1.1.26.09.22-.4.66-.31.31.04.53-.04.7-.18.44-.09.66.09,1.14.66.4.53.26.97.62,1.28.35.4.4,1.14.66,1.67.26.79.4,1.67.35,1.98-.04.62-.62.75-.88,1.01-.4.35-.7.4-1.01.44-.22.04-.48.18-.7.22-.75-.13-1.01-.53-1.1-1.14ZM112.35,86.39c-.26.48-.31.92-1.14,1.06-.62.09-1.28-.44-1.85-.84-.53-.53-.97-.88-1.54-1.14-.66-.48-.97-.66-1.5-1.14-.62-.26-1.14-1.01-1.5-1.32-.48-.62-2.02-.4-2.55,0-.62.4-1.01.75-1.54,1.23-.35.31-1.14.79-1.58,1.1-.62.35-1.06.57-1.72.97-.48.26-.84.35-1.5.84-.79.44-1.14.62-1.67.53-.44.22-.92-.44-1.1-.7-.31-1.01-1.23-1.67-1.01-2.29.04-.75.4-1.06,1.1-1.19.57-.44,1.28-.53,2.11-1.06.7-.48,1.32-.62,1.94-1.23.48-.31.79-.57,1.19-.79.22-.4.7-.53.88-.84.09-.18.48-.7.62-1.5.04-.35,0-1.1-.44-1.41-.26-.18-.4-.79-.7-1.32-.31-.26-.53-.75-.66-1.28-.22-.62-.35-.97-.57-1.32-.31-.66-.7-.7-.97-.62-.44.09-.75.18-1.01,1.1-.22.4-.31.53-.22.75-.22.7-.66,1.63-.79,2.29-.53.88-.48,1.36-.97,2.2-.13.22-.66.79-.92,1.67-.31.26-.26.75-.7,1.28-.13.62-.66.97-.84,1.36-.26.53-.4.79-.88,1.28-.35.35-.79.88-.88,1.1-.66.75-1.28,1.23-1.45,1.06-.79-.09-1.19-.88-1.5-1.19-.57-.35-1.01-1.01-1.1-1.76.18-.57.7-1.19.92-1.58.26-.26.79-.97,1.14-1.45.4-.44.57-1.19,1.01-1.58.44-.48.44-.88.88-1.67.18-.44.62-1.28.79-1.76.04-.66.66-1.23.7-1.76.13-.66.35-1.41.57-1.8.04-.53.4-1.1.48-1.8.09-.57.18-1.19.4-1.8.26-.7.09-1.19.35-1.76-.09-.35.26-1.1.22-1.67-.13-.66.26-.97.18-1.72.18-.7-.13-1.19.13-1.76-.04-.79-.04-1.28.09-1.76.09-.4.09-1.23.04-1.76,0-.44-.18-1.23.04-1.76.09-.44.09-.92-.09-1.58-.04-.66-.79-1.1-1.28-1.06-1.28.04-1.63,0-2.95.04-.79.04-1.19-.44-1.19-1.5.13-.35-.18-1.01,0-1.28.09-.79.26-1.41,1.19-1.45,1.23.09,2.38.13,3.34,0,.79-.04,1.67-.13,2.82,0,1.14-.18,1.8.09,2.86,0,.7-.04,1.98.22,2.86,0h2.82c.62.04.97-.09,1.32-.18.44.18.62.22.79.44.35.18.48.66.97.84.22.18.66.75.92.92.35.22.18.4.35.66-.26.13-.31.48-.7.79-.04.26-.66,1.28-.53,1.63-.26.35-.31.75-.35,1.45-.22.75-.13,1.19-.4,1.5-.04.44-.04.57-.26,1.06-.18.4-.26.7-.26,1.06-.18.62.04,1.28,1.14,1.28.31-.09.97-.09,1.54-.09.66,0,.66-.31,1.41-.31.44-.09.79.13.88.53.31.22.75.75,1.01.92.44.18.48.57,1.01,1.01.13.13.26.44.18.79-.13.48-.53.7-.75.84-.4.22-.31.66-.44,1.01-.31.97-.66,1.8-.62,2.64-.18.84-.44,1.23-.57,1.85-.22.79-.44,1.32-.62,1.85-.26.7-.4,1.45-.7,1.8-.4.53-.4,1.36-.79,1.76-.13.75-.62,1.01-1.06,1.98-.35.75-.18,1.85.31,2.33.48.22,1.19,1.14,1.76,1.36.7.26,1.19.88,1.58,1.1.62.18.97.53,1.67,1.1.53.44,1.06.4,1.06,1.06v.22c-.13,1.06-.75,1.19-1.23,2.16ZM106.24,64.56c-.35,0-.57.18-.92,0-.75-.04-1.28.09-1.54.57-.22.4-.7.4-.97.31-1.23.09-1.67-.22-2.2-.22-.4.09-1.06-.48-.92-1.01-.04-.48.18-.66.35-1.28.04-.44.4-1.23.53-1.58.31-.4.22-.97.44-1.54.09-.44.09-1.14.44-1.54-.09-.66.04-1.23.4-1.58.13-.53.4-1.28.48-2.16.22-.31.31-.44.04-.84-.18-.26-.22-.66-1.45-.48-.26.18-1.67-.18-2.2.04-.53-.18-.97.57-1.06,1.06.09.53,0,1.41,0,2.11-.04.92-.18,1.58-.09,2.2-.09.44.18.35.18.79.22.35.22.53.18,1.01.18.57.18,1.32.4,1.94.31.57.4,1.23.44,1.94,0,.53.35,1.01.53,1.85,0,.79.44,1.1.66,1.89.35.48.62,1.19.7,1.85.4.44.57,1.41.84,1.8.35.22.48,1.19.7,1.36.4.88,1.5.97,1.94.48.26-.44.26-.7.48-1.01.13-.44.22-.66.57-1.28,0-.31.48-.97.48-1.36.22-.79.92-2.33,1.06-3.34.31-1.36-.09-1.94-.48-1.98Z"/>
            <path class="cls-1" d="M81.86,90.61h-1.63s-.08,0-.12,0c-1.19-.06-2.28-.58-2.99-1.42-.46-.54-.74-1.19-.82-1.86-.49.14-1.02.15-1.54.03-.77-.07-1.4-.42-1.86-.67-.07-.04-.14-.08-.21-.12-.2-.05-.39-.13-.58-.23-1.18-.66-1.91-1.62-2.16-2.88-.01-.07-.02-.13-.03-.2-.13-1.1.18-1.97.39-2.55,0-.02.02-.05.03-.07.01-.58.11-1.29.34-1.96,0-.56.09-1.13.24-1.68,0-.42.08-.78.14-1.03.02-.09.05-.18.06-.29-.02-.13-.03-.19-.03-.32,0-.37.05-.69.1-.95.02-.13.05-.31.05-.4-.21-.75-.16-1.59.13-2.34-.25-.34-.43-.75-.55-1.22l-.03-.07c-.12-.3-.31-.78-.4-1.42-.05-.15-.1-.28-.14-.4-.23-.64-.47-1.3-.47-2.08,0-.23.03-.42.05-.55.06-.8.44-1.56,1.07-2.11.73-.64,1.73-.95,2.77-.85,0,0,.01,0,.01,0,.22-.04.46-.06.68-.04,0,0,0,0,0,0,.03-.04.06-.08.09-.13.05-.07.1-.13.15-.2-.12-.12-.25-.26-.36-.42-.05-.03-.11-.07-.21-.14-.32-.2-.79-.49-1.22-1.02-.5-.35-.95-.69-1.41-1.07-.87-.6-1.68-1.78-1.68-3.07v-.13c0-.18.02-.36.06-.54l.02-.11c.06-.38.19-1.24.99-1.98.02-.03.04-.06.05-.08.03-.05.06-.09.09-.14.26-.66.72-1.27,1.28-1.68.42-.3.88-.5,1.36-.58.18-.37.39-.67.58-.92.13-.29.27-.51.37-.66.12-.75.45-1.29.66-1.62.35-1.62,1.63-3.16,3.66-3.25.04,0,.08,0,.11,0h.13c.49,0,.89.12,1.18.25.06.02.12.03.18.05.32.11.68.26,1.2.5.65.16,1.11.47,1.38.67.37.14.7.36.97.65.72.78,1.03,1.78.86,2.77.18.05.33.11.47.17.02-.12.04-.24.08-.37.47-2.87,2.59-3.28,3.51-3.33.1,0,.2,0,.3,0,.96.07,2.04.12,2.83.02.07,0,.13-.02.2-.02l.32-.02c.69-.04,1.54-.1,2.6,0,.76-.08,1.35-.04,1.84,0,.34.03.58.04.85.02.48-.03.93,0,1.36.04.34.03.91.07,1.11.03.2-.05.39-.07.6-.07h2.82c.06,0,.12,0,.18,0,.1,0,.11,0,.33-.05l.21-.05c.51-.13,1.05-.09,1.54.11l.15.06c.35.14.84.33,1.31.77.29.22.5.45.64.62.1.06.19.12.28.19.25.2.47.44.67.66.06.07.13.14.19.21.59.41,1,1,1.18,1.74.2.5.24,1.05.1,1.58-.12.46-.37.87-.72,1.19-.07.1-.16.22-.27.35-.02.04-.04.08-.06.12-.04.08-.08.16-.11.24-.02.39-.13.77-.33,1.11-.01.1-.02.22-.02.36-.01.19-.04.37-.1.55-.05.18-.07.32-.09.45-.04.25-.09.59-.23.97.24-.06.53-.11.87-.13,1.27-.15,2.48.45,3.13,1.48.09.09.17.17.26.25.04.04.09.09.13.13.6.36.94.81,1.12,1.06.03.04.05.08.09.12.06.05.11.1.17.15.8.8,1.12,2.01.83,3.17-.25.91-.76,1.51-1.2,1.89-.02.06-.04.12-.06.17l-.16.49c-.15.44-.33.99-.32,1.2.01.22,0,.43-.05.65-.13.64-.31,1.1-.43,1.44-.05.14-.11.27-.14.42-.01.05-.02.09-.04.14-.17.61-.34,1.09-.49,1.51-.06.16-.11.31-.16.46-.1.27-.16.46-.21.64-.17.57-.37,1.21-.79,1.78-.02.07-.04.14-.06.21-.1.33-.24.78-.51,1.23-.21.6-.51,1.04-.73,1.35-.08.12-.15.21-.21.31.13.12.26.23.38.34.11.1.22.22.34.31.75.31,1.3.78,1.67,1.1.01.01.03.02.04.04.75.3,1.27.74,1.78,1.16l.38.28c1.25.66,1.88,1.65,1.88,2.94v.22c0,.1,0,.21-.02.31-.17,1.37-.82,2.13-1.2,2.59-.15.18-.22.26-.28.38-.01.03-.03.05-.04.08l-.06.12c-.25.52-.9,1.89-2.89,2.21-1.57.22-2.78-.62-3.5-1.13l-.17-.12c-.12-.09-.24-.18-.34-.29-.41-.41-.61-.55-.82-.64-.15-.07-.3-.16-.43-.25l-.45-.32c-.32-.23-.63-.44-1-.77-.61-.35-1.07-.82-1.42-1.19-.35.24-.61.47-1.05.87-.41.36-.9.68-1.38,1-.17.11-.33.22-.46.31-.06.04-.12.08-.19.12-.26.15-.48.27-.71.39-.3.17-.59.33-.96.55-.03.02-.06.04-.09.05-.2.11-.38.19-.55.28-.26.12-.4.19-.66.38-.08.06-.17.12-.26.17-.76.42-1.62.91-2.73.86-1.05.12-2.31-.31-3.33-1.84-.14-.2-.24-.42-.31-.66-.01-.04-.06-.12-.11-.21-.89.85-1.67,1.24-2.51,1.27-.29,0-.6-.03-.88-.12-.66-.15-1.19-.46-1.6-.79-.32,1.08-1.18,2.47-3.53,2.75-.1.01-.2.02-.29.02ZM72.91,86.61s0,0,0,0c0,0,0,0,0,0ZM112.35,86.39h0,0ZM103.78,85s0,0,0,0c0,0,0,0,0,0ZM89.4,84.16c.09.06.18.13.26.21h0c-.08-.08-.17-.15-.26-.21ZM102.17,76.13c.32.77.38,1.59.3,2.25,0,.03,0,.07-.01.1-.15.91-.49,1.6-.72,2,1-.38,2.28-.5,3.39-.16-.72-1.27-.82-2.97-.18-4.34,0,0,0,0,0-.01-.65.31-1.4.42-2.16.3-.21-.03-.42-.08-.62-.15ZM96.94,77.19c-.05.13-.11.25-.18.37-.14.23-.19.39-.29.68-.07.19-.15.42-.26.69.07-.05.13-.09.19-.14.14-.1.27-.19.4-.27.21-.22.42-.39.58-.51-.2-.27-.33-.56-.44-.81ZM109.49,78.09s0,0,0,.01c0,0,0,0,0-.01ZM94.96,67.2s0,.08,0,.12c-.03.37-.07.92-.33,1.6-.12.33-.18.76-.25,1.22-.02.17-.05.32-.08.47.46-.45,1.04-.75,1.75-.91.63-.16,1.36-.13,2.04.16-.05-.16-.12-.29-.16-.35-.17-.24-.31-.51-.39-.8-.02-.07-.06-.15-.14-.31-.2-.39-.52-1.01-.59-1.9-.04-.14-.09-.27-.15-.43-.16-.41-.37-.97-.39-1.67-.03-.45-.08-.73-.14-.85-.06-.11-.11-.23-.15-.35-.2-.57-.28-1.11-.35-1.55,0,0,0,0,0,0-.01.06-.03.13-.05.19.02.28.05.7-.02,1.22,0,.6-.12,1.07-.2,1.36h0c.05.69-.09,1.27-.19,1.71,0,.04-.02.07-.03.1,0,.34-.05.67-.17.98ZM103.25,69.35h0s0,0,0,0ZM103.01,68.93c.08.14.15.28.21.42,0-.04.02-.09.03-.13.09-.33.25-.78.43-1.27,0,0,0,0,0-.01-.32.06-.65.07-.98.03.12.31.22.63.29.96ZM77.37,67.01c.61,0,1.7.08,2.76.97.08.07.16.14.23.22.16.17.29.35.4.53.08-.39.23-.79.5-1.17-.87-.16-1.64-.68-2.09-1.47-.15-.26-.25-.54-.32-.82-.13.16-.25.33-.37.49-.33.44-.66.9-1.11,1.27ZM87.78,68.34h0s0,0,0,0ZM86.56,67.95s0,0,0,0c0,0,0,0,0,0ZM105.97,66.33s-.01.02-.02.03c0-.01.01-.02.02-.03ZM113.26,66.33s-.04.02-.05.03c.02,0,.03-.02.05-.03ZM69.81,66.15h0s0,0,0,0ZM86.43,65.98c.14.04.29.08.43.14l-.04-.09c-.04-.09-.08-.19-.11-.28-.02-.05-.04-.1-.05-.16-.06.13-.13.26-.22.39ZM95.06,65.67h0s0,0,0,0ZM108.24,62.88c.15.14.29.3.41.47.19.27.39.63.52,1.09h0c.05-.3.14-.8.43-1.31-.1-.1-.2-.2-.3-.3-.03-.03-.05-.05-.08-.08-.27.07-.61.13-.99.11ZM109.22,64.31s0,0,0,0c0,0,0,0,0,0ZM109.22,64.3s0,0,0,0c0,0,0,0,0,0ZM109.22,64.3s0,0,0,0c0,0,0,0,0,0ZM95.31,64.11h0s0,0,0,0ZM110.63,63.85s0,0,0,0c0,0,0,0,0,0ZM73.75,62.96s0,0,0,0c0,0,0,0,0,0ZM102.8,62.5l-.02.05s-.03.08-.05.13c.39-.25.88-.46,1.48-.56-.23-.19-.39-.38-.51-.54-.16-.21-.29-.43-.39-.66-.06.38-.16.97-.5,1.57ZM90.4,61.98c.07.08.13.17.19.26,0,0,0-.01,0-.02-.03-.31-.07-.81.07-1.41-.03-.67,0-1.31.17-2,.01-.13.02-.62,0-1,0-.07,0-.14,0-.21,0-.05-.01-.13-.02-.21-.04-.44-.09-1.03.01-1.67-.1,0-.19,0-.29,0-.14,0-.28,0-.42,0-.29.84-.86,1.45-1.69,1.84-.05.08-.1.15-.16.22-.07.09-.14.19-.21.3-.09.17-.17.31-.25.44-.06.1-.12.21-.2.37.59.18,1.2.56,1.67,1.31.62.53.95,1.21,1.16,1.77ZM95.44,62.18s0,0,0,0c0,0,0,0,0,0ZM79.54,60.49c.18.37.29.75.35,1.13.3-.46.62-.88.84-1.15,0-.02.02-.04.03-.06-.41.11-.82.14-1.22.09ZM88.73,59.86s.08.05.12.08c-.04-.03-.08-.05-.12-.08ZM74.14,57.81s0,0,0,0c0,0,0,0,0,0ZM75.23,56.59c.24.17.48.35.75.52.13.08.24.18.35.28-.1-.38-.14-.78-.12-1.18-.33.19-.67.31-.98.37ZM81.19,56.61h0s0,0,0,0ZM74,55.68c.11.05.21.12.31.18-.11-.08-.22-.14-.31-.18ZM92.21,55.7h0,0ZM108.85,55.63s0,0,0,0c0,0,0,0,0,0ZM75.66,55.38h0ZM75.66,55.38h0s0,0,0,0ZM75.66,55.37h0s0,0,0,0ZM75.66,55.37h0s0,0,0,0ZM75.66,55.37h0s0,0,0,0ZM90.76,54.43h0s0,0,0,0ZM106.3,53.1s.07.05.11.07c-.04-.02-.07-.05-.11-.07ZM94.27,51.47c.07.05.14.11.21.17.44.37.77.83.99,1.33.22-.52.57-1.05,1.06-1.46-.37-.03-.63-.04-.96,0-.22.03-.45.04-.67.01-.22-.03-.43-.04-.63-.05ZM103.84,51.54c.24.23.46.5.64.82.05.08.11.17.15.25.09-.25.2-.47.29-.67,0-.01.01-.02.02-.04-.16-.13-.3-.27-.41-.39-.21.02-.44.04-.69.03ZM104.91,52.09h0s0,0,0,0ZM104.72,51.53h0s0,0,0,0ZM103.89,50.86s0,0,0,0c0,0,0,0,0,0ZM88.91,50.76s-.01,0-.02,0c0,0,.01,0,.02,0h0ZM110.17,50.33s0,0,0,0c0,0,0,0,0,0Z"/>
          </g>
        </g>
        <g>
          <path class="cls-9" d="M41.47,74.11c-.4-.57-1.06-.97-1.58-.88-.35.04-.7.44-.66,1.06.04.48-.13.75,0,1.06-.04.62.18,1.28,0,1.8-.04.75-.22,1.28,0,1.76.13.7-.18,1.23,0,1.94.04.66,0,1.28.04,1.89-.22.79-.04,1.23.04,1.98.04.66-.13,1.36-.04,1.98-.18.92-.35,1.32-1.45,1.36-.13.04-.26.04-.35.04h-.09c-.31,0-.57-.09-.84-.09-.09,0-.18,0-.26.04h-.22c-.7,0-1.28-.62-1.23-1.36-.13-.84-.26-1.41,0-1.98-.09-.66.13-1.5,0-1.98,0-.4-.13-1.1.04-1.89-.22-.7.18-1.19,0-1.94-.13-.92-.09-1.67,0-2.33-.13-.75.13-1.63,0-2.33.18-.18-.04-1.76,0-2.51.04-.79-.4-1.41-1.28-.66-.44.35-.75.35-.75.7-.31.4-.84.97-1.41,1.1-.57.48-.7.48-1.1.48-.66-.09-1.14-.7-1.36-1.32-.18-.4-.79-1.23-.92-1.98-.04-.04-.09-.13-.09-.18,0-.26.26-.53.53-.75.62-.26.88-.7,1.54-1.23.57-.31,1.19-.84,1.5-1.14.31-.4.62-.48,1.19-1.06.22-.31.53-.79,1.1-1.01.26-.09.53-.7,1.01-.97.18-.44.88-.92,1.06-1.14.26-.18.7-.79,1.01-1.1.18-.31.53-.92.92-1.19.18-.4.35-.66.62-.84.31-.53.53-1.5-.48-1.41-.44-.04-1.58.04-2.02,0-.84-.09-1.06-.09-1.85,0-.7.18-1.41-.04-1.85,0-.92.04-1.45,0-2.24-.04-.75.04-1.5-.4-1.41-1.45.09-.44,0-.62,0-1.28-.04-.97.66-1.5,1.36-1.45.66.04,1.45,0,2.29,0,.44-.09.88.09,1.45,0,.7.22,1.1-.66,1.19-1.14,0-.22.13-1.06,0-1.36-.09-.79,0-1.63,0-2.95-.09-.75.48-1.14,1.23-1.14,1.01.26,1.94,0,3.17.22.44-.04.92.04.84.48-.22.66-.88.66-1.1,1.98.09.79.09,1.58.04,2.11.13.97.4,1.63,1.19,1.8.48,0,.66.09,1.63,0,.35-.18.92-.66,1.06-.44.35,0,.66.13.88.44.35.57.88.48,1.06.97.22.57.75.35,1.06,1.01.18.35.35.62.26,1.06s-.44.62-.92.7c-.53.26-1.14.92-1.36,1.36-.22.26-.7.97-.84,1.32-.4.35-.66.75-.84,1.32-.31.35-.62.92-.88,1.19-.26.22-.75.62-.88,1.14-.35.62-.7,1.06-.92,1.41-.31.48-.31,1.1-.31,1.5-.18.44-.04.92.48,1.14.31.13,1.23-.31,1.41-.66.62-.75.88-1.19,1.45-1.94.62-.75.84-1.36,1.45-2.02.35-.62.62-.53,1.01-.53.31-.04.35.4.84.35.31.48.88.7,1.19.79.4.22,1.01.75,1.28.88.04.35.53.31.4.62.09.79-.75.35-1.14.66-.22.35-.53.44-1.01.92-.53.44-.66.57-.88.92-.4.53-.84.7-.92,1.01-.57.57-.79,1.58-.18,2.07.35.18.44.48.92.84.62.44,1.5.97,1.45,1.89,0,.35-.31.62-.48,1.06-.4.22-.75.7-1.06,1.14-.44.48-.53.62-1.06.57-.57.04-1.36-.79-1.8-1.41-.31-.4-.62-.75-1.1-1.01ZM69.06,54.57c0,.62-.22.79-.62,1.1-.4.31-.62,1.01-.4,1.28,0,.88-.04,2.07-.04,3.17-.13.79-.09,1.58-.04,2.51.09.84,0,1.72,0,2.95.09.92-.13,2.02-.04,3.26.04,1.23-.09,2.42-.04,3.39.04.53.09.97-.09,1.72.04.48,0,1.36-.09,1.67.09,1.23-.09,1.98-.22,3.17-.26.84-.35,2.16-.44,2.82-.22,1.06-.18,1.45-.57,2.33-.53,1.01-.92,1.45-1.19,2.02-.57.75-1.14,1.06-1.72,1.23-.79.44-1.54.31-2.11.57-.88-.04-1.63.4-2.33.18-.57-.09-.88.09-1.5,0-.7.13-1.14-.13-1.36-1.06-.18-.57-.13-1.28-.31-1.76-.26-.44-.18-.75-.22-1.14-.04-.44.53-.97.92-.92.57.09.79.18,1.5,0,.66.09,1.58-.04,2.38-.18.79.04,1.1-.79,1.58-1.45.31-.75.4-1.5.57-2.6l.31-2.64c.04-.7.04-1.67.18-2.24.09-.7.22-1.41.04-2.2.13-.92.09-1.63.04-2.24-.13-.66.22-1.58.04-2.24,0-.79.22-1.54.04-2.07,0-.57.09-1.45.04-2.07-.04-.57-.13-1.28.04-2.07,0-.75.13-1.36,0-2.07-.09-.31.04-.88-.04-1.14-.26-.57-.62-.84-1.1-1.14-.4-.09-1.01-.26-1.58-.18-.66.04-1.23-.04-1.67,0-.26.22-.84.31-1.1.88-.13.4-.26.84-.26,1.36-.18.62.04,1.89,0,2.68.09.79-.22,2.07-.04,2.9.09,1.06.04,1.85-.13,2.95,0,.79-.35,2.11-.31,2.9-.26,1.14-.26,1.94-.57,2.86-.35.84-.57,1.58-.62,2.11-.13.62-.62,1.58-.88,2.02-.26.7-.75,1.45-1.01,1.89-.44.75-.97,1.1-1.23,1.76-.57.75-.88,1.06-1.41,1.67-.44.7-.79.97-1.5,1.54-.62.44-1.28.88-1.67,1.45-.44.48-1.01.79-1.8,1.32-.66.35-.97.97-1.8.88-.88.13-1.23-.62-1.41-1.23-.18-.48-1.14-.92-1.1-1.8-.22-.18.04-.88.53-1.06.4-.26.88-.44,1.41-1.01.48-.22,1.36-.62,1.76-1.23.35-.26.97-.97,1.58-1.45.44-.48.84-1.14,1.41-1.63.4-.75.75-.92,1.23-1.76.48-.48.57-1.19,1.01-1.89.4-.26.35-.88.57-1.41.22-.62.13-.7.44-1.41.18-.35.26-.92.31-1.45-.09-.4,0-.84.26-1.5-.09-.53.09-1.41.22-1.94-.18-.84.22-1.14.13-1.94-.13-.53-.09-1.32.09-1.94-.04-.79.18-1.36,0-1.89-.04-.7-.04-1.67,0-2.51-.13-.88-.4-1.5-.79-1.85-.31-.26-.92-.26-1.28-.31l-2.16.04c-.7-.04-1.23-.66-1.19-1.5.04-.57.04-1.06,0-1.45-.04-.66.44-1.23,1.19-1.45.62-.13,1.28.18,1.94,0,.75.18,1.54,0,2.02,0,.75-.18,1.14.18,1.98.04.88.13,1.67-.09,2.51,0,.88.13,1.72-.18,2.46,0,.66-.09,1.63.18,2.51,0,.7.22,1.45.18,2.24-.04.35-.09.97-.4,1.28-.44.57-.09.66.4.97.44.35.13.57.75.97.88.22.44.48.44.97.92.22.13.31.26.31.62Z"/>
          <path class="cls-9" d="M83.27,70.81c-.04.92-.22,2.24,0,2.99.09.88-.04,1.63,0,2.6.13.97-.13,1.94,0,2.55-.09.53.18,1.14.04,1.94-.09.53-.18,1.45,0,1.89.04.84.18,1.54.04,1.98-.18.79-.04,1.54,0,1.98-.09,1.06-.75,1.28-1.5,1.36h-1.63c-.92-.04-1.54-.66-1.45-1.36.13-.4-.09-.44,0-.75.04-.57.13-1.32,0-1.8.04-.75-.18-1.01.04-1.76-.13-1.19-.04-2.46,0-3.48.09-.7-.18-1.41,0-2.42.09-1.01.18-1.54,0-2.51-.18-.75,0-1.58,0-2.33-.18-.57.18-1.28-.31-1.8-.57-.48-1.1-.35-1.67-.4-.53,0-1.36.04-1.89.31-.22.31-.48.66-.75.66-.84-.04-.88-.31-.97-.66s-.35-.75-.4-1.41c-.31-.92-.57-1.45-.57-1.94,0-.09.04-.18.04-.31,0-.4.44-.79,1.14-.7.31.04.48,0,.7-.04.57.04,1.01.09,1.54-.26.35-.22.79-.97,1.28-1.54.31-.44.7-1.36.26-2.11-.31-.35-.92-.57-1.01-.88-.66-.75-1.28-.75-1.63-1.41-.66-.44-1.19-.84-1.72-1.28-.18-.09-.66-.57-.66-1.06v-.13c.09-.4.04-.62.31-.84.26-.22.44-.62.66-.88.04-.31.44-1.01.97-.92.48.18.97.13,1.54-.88.04-.53.26-.75.66-1.28.18-.57.48-.66.62-1.36.04-.62.53-.97.62-1.41.04-.48.4-1.45,1.36-1.5h.13c.26,0,.4.26.57.18.26.09.66.26,1.23.53.62.04.79.57,1.28.62.53.57.04,1.14-.22,1.23-.26.09-.44.18-.48.48-.48.75-.53,1.19-.84,1.63-.22.57-.79,1.23-.84,1.67-.48.53-.66,1.1-.88,1.58-.35.75-.22,1.45.31,1.98.18.26.26.31.53.4.31.18.79-.18,1.06-.53.26-.31.35-.7.7-1.32.35-.7.66-1.28,1.01-2.02.44-.62.53-1.58,1.5-1.63.35-.04.48.26.75.22.26.4.7.35,1.28.57.22.04.84.35,1.32.62.22.13.53.48.4.92-.18.7-.75.44-1.14.88-.13.31-.4.62-.75,1.14-.22.44-.35.57-.62,1.14-.48.48-.62,1.19-1.14,1.94-.31.84-.84.88-1.23,1.89-.31.35-.92,1.14-1.19,1.72-.7.88-.44,1.67.22,1.58.4.09,1.19-.04,1.67-.13.53-.22.92-.18.84-.79-.04-.44-.44-.84-.4-1.14s.13-.84.84-1.06c.35-.13.48-.13.75-.4.18.04.4-.31.97-.31.7,0,.48.53.97.79.31.18.48.66.66,1.23.44.35.66,1.01.88,1.67.4.84.62,1.23.84,1.8.22.7.4.84.35,1.32.09.84-.66.97-.97,1.19-.53.13-.53.22-.97.44-.18.18-.48.18-.88.18-.84.18-.53-.66-1.23-1.28-.48-.4-1.19-.26-1.72-.13-.35.13-.88.13-1.14.44-.31.35-.13.88-.09,1.89ZM78.25,72.97c0,.53-.75.84-.75,1.41,0,.84-.09,1.63-.09,2.16.13.88-.26,2.07-.31,2.86-.31.92-.44,1.8-.48,2.9l-.35,1.58c-.18.62-.4,1.28-1.14.97-.48.09-1.28-.62-1.8-.7-.4-.22-.79-.53-.92-1.19-.09-.75.31-1.41.44-1.98-.04-.57.09-1.36.35-1.85-.04-.53,0-1.19.26-1.89-.18-.4.26-1.06.13-1.89,0-.48.26-1.14.09-1.94-.22-.53.09-1.76,1.19-1.5l1.8.35c1.01.04,1.58.18,1.58.7ZM85.11,77.24c-.09-.79-.31-1.5-.7-2.42-.44-1.06-.66-1.89-.62-2.11-.13-.48.26-.79.88-1.1.26.09.22-.4.66-.31.31.04.53-.04.7-.18.44-.09.66.09,1.14.66.4.53.26.97.62,1.28.35.4.4,1.14.66,1.67.26.79.4,1.67.35,1.98-.04.62-.62.75-.88,1.01-.4.35-.7.4-1.01.44-.22.04-.48.18-.7.22-.75-.13-1.01-.53-1.1-1.14ZM112.35,86.39c-.26.48-.31.92-1.14,1.06-.62.09-1.28-.44-1.85-.84-.53-.53-.97-.88-1.54-1.14-.66-.48-.97-.66-1.5-1.14-.62-.26-1.14-1.01-1.5-1.32-.48-.62-2.02-.4-2.55,0-.62.4-1.01.75-1.54,1.23-.35.31-1.14.79-1.58,1.1-.62.35-1.06.57-1.72.97-.48.26-.84.35-1.5.84-.79.44-1.14.62-1.67.53-.44.22-.92-.44-1.1-.7-.31-1.01-1.23-1.67-1.01-2.29.04-.75.4-1.06,1.1-1.19.57-.44,1.28-.53,2.11-1.06.7-.48,1.32-.62,1.94-1.23.48-.31.79-.57,1.19-.79.22-.4.7-.53.88-.84.09-.18.48-.7.62-1.5.04-.35,0-1.1-.44-1.41-.26-.18-.4-.79-.7-1.32-.31-.26-.53-.75-.66-1.28-.22-.62-.35-.97-.57-1.32-.31-.66-.7-.7-.97-.62-.44.09-.75.18-1.01,1.1-.22.4-.31.53-.22.75-.22.7-.66,1.63-.79,2.29-.53.88-.48,1.36-.97,2.2-.13.22-.66.79-.92,1.67-.31.26-.26.75-.7,1.28-.13.62-.66.97-.84,1.36-.26.53-.4.79-.88,1.28-.35.35-.79.88-.88,1.1-.66.75-1.28,1.23-1.45,1.06-.79-.09-1.19-.88-1.5-1.19-.57-.35-1.01-1.01-1.1-1.76.18-.57.7-1.19.92-1.58.26-.26.79-.97,1.14-1.45.4-.44.57-1.19,1.01-1.58.44-.48.44-.88.88-1.67.18-.44.62-1.28.79-1.76.04-.66.66-1.23.7-1.76.13-.66.35-1.41.57-1.8.04-.53.4-1.1.48-1.8.09-.57.18-1.19.4-1.8.26-.7.09-1.19.35-1.76-.09-.35.26-1.1.22-1.67-.13-.66.26-.97.18-1.72.18-.7-.13-1.19.13-1.76-.04-.79-.04-1.28.09-1.76.09-.4.09-1.23.04-1.76,0-.44-.18-1.23.04-1.76.09-.44.09-.92-.09-1.58-.04-.66-.79-1.1-1.28-1.06-1.28.04-1.63,0-2.95.04-.79.04-1.19-.44-1.19-1.5.13-.35-.18-1.01,0-1.28.09-.79.26-1.41,1.19-1.45,1.23.09,2.38.13,3.34,0,.79-.04,1.67-.13,2.82,0,1.14-.18,1.8.09,2.86,0,.7-.04,1.98.22,2.86,0h2.82c.62.04.97-.09,1.32-.18.44.18.62.22.79.44.35.18.48.66.97.84.22.18.66.75.92.92.35.22.18.4.35.66-.26.13-.31.48-.7.79-.04.26-.66,1.28-.53,1.63-.26.35-.31.75-.35,1.45-.22.75-.13,1.19-.4,1.5-.04.44-.04.57-.26,1.06-.18.4-.26.7-.26,1.06-.18.62.04,1.28,1.14,1.28.31-.09.97-.09,1.54-.09.66,0,.66-.31,1.41-.31.44-.09.79.13.88.53.31.22.75.75,1.01.92.44.18.48.57,1.01,1.01.13.13.26.44.18.79-.13.48-.53.7-.75.84-.4.22-.31.66-.44,1.01-.31.97-.66,1.8-.62,2.64-.18.84-.44,1.23-.57,1.85-.22.79-.44,1.32-.62,1.85-.26.7-.4,1.45-.7,1.8-.4.53-.4,1.36-.79,1.76-.13.75-.62,1.01-1.06,1.98-.35.75-.18,1.85.31,2.33.48.22,1.19,1.14,1.76,1.36.7.26,1.19.88,1.58,1.1.62.18.97.53,1.67,1.1.53.44,1.06.4,1.06,1.06v.22c-.13,1.06-.75,1.19-1.23,2.16ZM106.24,64.56c-.35,0-.57.18-.92,0-.75-.04-1.28.09-1.54.57-.22.4-.7.4-.97.31-1.23.09-1.67-.22-2.2-.22-.4.09-1.06-.48-.92-1.01-.04-.48.18-.66.35-1.28.04-.44.4-1.23.53-1.58.31-.4.22-.97.44-1.54.09-.44.09-1.14.44-1.54-.09-.66.04-1.23.4-1.58.13-.53.4-1.28.48-2.16.22-.31.31-.44.04-.84-.18-.26-.22-.66-1.45-.48-.26.18-1.67-.18-2.2.04-.53-.18-.97.57-1.06,1.06.09.53,0,1.41,0,2.11-.04.92-.18,1.58-.09,2.2-.09.44.18.35.18.79.22.35.22.53.18,1.01.18.57.18,1.32.4,1.94.31.57.4,1.23.44,1.94,0,.53.35,1.01.53,1.85,0,.79.44,1.1.66,1.89.35.48.62,1.19.7,1.85.4.44.57,1.41.84,1.8.35.22.48,1.19.7,1.36.4.88,1.5.97,1.94.48.26-.44.26-.7.48-1.01.13-.44.22-.66.57-1.28,0-.31.48-.97.48-1.36.22-.79.92-2.33,1.06-3.34.31-1.36-.09-1.94-.48-1.98Z"/>
        </g>
      </g>
    </g>
  </g>
</svg>