<?xml version="1.0" encoding="UTF-8"?>
<svg id="_レイヤー_2" data-name="レイヤー 2" xmlns="http://www.w3.org/2000/svg" xmlns:xlink="http://www.w3.org/1999/xlink" viewBox="0 0 142.54 141.48">
  <defs>
    <style>
      .cls-1 {
        fill: none;
        stroke: #848484;
        stroke-width: 6px;
      }

      .cls-1, .cls-2 {
        stroke-miterlimit: 10;
      }

      .cls-3 {
        fill: url(#_新規グラデーションスウォッチ_1);
      }

      .cls-3, .cls-4, .cls-5, .cls-6 {
        stroke-width: 0px;
      }

      .cls-4 {
        fill: url(#_名称未設定グラデーション_174);
      }

      .cls-5 {
        fill: url(#_新規グラデーションスウォッチ_1-2);
      }

      .cls-6 {
        fill: url(#_新規グラデーションスウォッチ_1-3);
      }

      .cls-2 {
        fill: #fff;
        stroke: #fff;
      }
    </style>
    <linearGradient id="_新規グラデーションスウォッチ_1" data-name="新規グラデーションスウォッチ 1" x1="0" y1="108.45" x2="71.24" y2="108.45" gradientUnits="userSpaceOnUse">
      <stop offset="0" stop-color="#dcdddd"/>
      <stop offset="1" stop-color="#595757"/>
    </linearGradient>
    <linearGradient id="_新規グラデーションスウォッチ_1-2" data-name="新規グラデーションスウォッチ 1" x1="-71.3" y1="108.45" x2="-.06" y2="108.45" gradientTransform="translate(71.24) rotate(-180) scale(1 -1)" xlink:href="#_新規グラデーションスウォッチ_1"/>
    <linearGradient id="_名称未設定グラデーション_174" data-name="名称未設定グラデーション 174" x1="11.04" y1="70.74" x2="131.3" y2="70.74" gradientTransform="translate(70.87 -29.61) rotate(45)" gradientUnits="userSpaceOnUse">
      <stop offset="0" stop-color="#f7f8f8"/>
      <stop offset="1" stop-color="#b5b5b6"/>
    </linearGradient>
    <linearGradient id="_新規グラデーションスウォッチ_1-3" data-name="新規グラデーションスウォッチ 1" x1=".43" y1="70.74" x2="141.91" y2="70.74" xlink:href="#_新規グラデーションスウォッチ_1"/>
  </defs>
  <g id="_レイヤー_1-2" data-name="レイヤー 1">
    <g>
      <polygon class="cls-3" points="15.89 75.49 0 88.87 71.24 141.42 15.89 75.49"/>
      <polygon class="cls-5" points="126.65 75.49 142.54 88.87 71.3 141.42 126.65 75.49"/>
      <rect class="cls-4" x="28.65" y="28.22" width="85.04" height="85.04" transform="translate(-29.17 71.04) rotate(-45)"/>
      <path class="cls-6" d="M71.17,141.48L.43,70.74,71.17,0l70.74,70.74-70.74,70.74ZM21.65,70.74l49.53,49.53,49.53-49.53-49.53-49.53-49.53,49.53Z"/>
      <g>
        <path class="cls-1" d="M65.11,75.27v.75c0,.75-.48,1.06-1.45,1.14-.4-.09-1.19.18-1.8,0-.48.04-.97-.04-1.14-.31-.31-.48-.62-.84-1.01-1.06-.35-.09-1.19-.44-1.41-.35-.75-.18-1.94.13-2.86-.13-1.06.09-2.11-.18-3.26-.04-.97.22-1.89,1.23-1.67,1.67-.04.31-.22.84,0,1.1-.09.75-.04,1.63,0,2.51,0,1.1.18,1.94,0,2.55.09.7.09,1.89.04,2.55-.13.88-.22,1.85.04,2.6l.04,1.58c.09.97-.75,1.14-1.45,1.19-.13.04-.31.04-.44.04h-.09c-.44,0-.88-.04-1.28-.04h-.31c-.66-.04-1.54-.31-1.45-1.19.09-.66.04-1.36.04-2.24,0-.7.09-1.54.04-2.42.13-.92.09-1.58,0-2.38-.04-.48.13-1.41.04-2.38-.04-.57,0-1.76,0-2.38-.22-.44.04-.7-.09-1.28-.13-.48-.35-1.41-1.8-1.5-.75-.09-2.29.09-3.04-.04-.7.22-2.07,0-2.68,0-1.01-.04-1.54.31-1.89.84-.22.35-.4,1.01-.4,1.54.13.88-.4.97-1.5,1.14-.62-.09-1.01-.04-1.8,0-.92,0-1.41-.62-1.41-1.41-.09-.53-.13-1.14-.13-1.8,0-.48.04-1.06.13-1.58,0-.57-.04-1.19-.04-1.85,0-.35,0-.66.04-1.01-.04-.88.13-1.72,0-2.82,0-.84.18-1.67,0-2.86-.04-.48-.04-.92-.04-1.41,0-.44,0-.92.04-1.41.09-.57-.09-1.23-.09-2.02,0-.18,0-.4.04-.62.09-.75.66-1.32,1.58-1.36.4.13.84.04,1.41.04.57.18,1.06.04,1.89,0,.88-.09,1.45,0,2.46,0,.97-.09,1.58.13,2.46,0h2.6c.92-.09,1.23-.09,1.8-.75.18-.26.53-.92.4-1.14.04-.79-.13-1.67-.09-2.82,0-1.06-.09-1.54-.09-2.68.04-.7.62-1.14,1.23-1.19h.26c.57,0,1.1.09,1.76.09.7.04,1.14.13,1.94.13.35.09.75.26.7.48.04.44-.22.57-.4.84-.18.18-.44.31-.44.66s-.26.92-.09,1.76c-.18.92.13,1.8.04,2.02-.22.35.04.53,0,.84-.04.44.18.7.75,1.28.26.26.79.48,1.41.48.88.04,1.76.18,2.6,0,.75.09,1.8-.04,2.46,0,.7,0,1.5.09,2.46,0,.48.13,1.14-.09,1.85,0s1.28-.18,1.89,0c.79-.09.97.57,1.14,1.32-.09.79-.13,1.63-.04,2.64-.09.7.04,1.85,0,2.46-.22.62.09,1.8,0,2.46-.13.97.09,1.67,0,2.46.09.35.13.7.13,1.06,0,.44-.04.88-.13,1.41-.13,1.06.04,1.89.04,2.82ZM45.74,64.75c.09-.22-.13-.84-.66-1.19-.31-.53-1.06-.44-1.28-.62-.75.22-1.67,0-2.29,0h-2.16c-.7,0-1.23.13-1.8.04-1.06,0-1.72,1.06-1.67,1.67-.13.53.09.84,0,1.36,0,.48-.09,2.16-.04,2.64-.09.57.13,1.36.66,1.8.66.57,1.06.44,1.63.44.92-.04,1.67.13,2.68,0,.62.13,2.02.04,2.64,0,.53-.18,1.01-.09,1.5-.62.31-.22.75-.92.79-1.19.13-.57-.18-1.5,0-2.16.18-.57-.09-1.45,0-2.2ZM60.18,64.36c0-.4-.97-1.19-1.76-1.36-.66.13-.97,0-1.54-.04-.75-.04-1.41.09-2.2,0-.66.18-1.63.09-2.29,0-.57.13-1.06.44-1.23.62-.48.53-.88.84-.66,1.19-.04.84-.18,1.45,0,2.2.04.57-.04,1.41,0,2.16-.13.26.13.88.75,1.19.48.22.84.75,1.5.62.88.22,1.98,0,2.68,0,.84-.18,1.67,0,2.64,0,.66-.18.7-.09,1.63-.66.44-.26.66-.48.62-2.02,0-.4-.04-1.67,0-2.2.04-.7-.13-1.1-.13-1.67Z"/>
        <path class="cls-1" d="M78.96,73.6c-.04.92-.22,2.24,0,2.99.09.88-.04,1.63,0,2.6.13.97-.13,1.94,0,2.55-.09.53.18,1.14.04,1.94-.09.53-.18,1.45,0,1.89.04.84.18,1.54.04,1.98-.18.79-.04,1.54,0,1.98-.09,1.06-.75,1.28-1.5,1.36h-1.63c-.92-.04-1.54-.66-1.45-1.36.13-.4-.09-.44,0-.75.04-.57.13-1.32,0-1.8.04-.75-.18-1.01.04-1.76-.13-1.19-.04-2.46,0-3.48.09-.7-.18-1.41,0-2.42.09-1.01.18-1.54,0-2.51-.18-.75,0-1.58,0-2.33-.18-.57.18-1.28-.31-1.8-.57-.48-1.1-.35-1.67-.4-.53,0-1.36.04-1.89.31-.22.31-.48.66-.75.66-.84-.04-.88-.31-.97-.66s-.35-.75-.4-1.41c-.31-.92-.57-1.45-.57-1.94,0-.09.04-.18.04-.31,0-.4.44-.79,1.14-.7.31.04.48,0,.7-.04.57.04,1.01.09,1.54-.26.35-.22.79-.97,1.28-1.54.31-.44.7-1.36.26-2.11-.31-.35-.92-.57-1.01-.88-.66-.75-1.28-.75-1.63-1.41-.66-.44-1.19-.84-1.72-1.28-.18-.09-.66-.57-.66-1.06v-.13c.09-.4.04-.62.31-.84.26-.22.44-.62.66-.88.04-.31.44-1.01.97-.92.48.18.97.13,1.54-.88.04-.53.26-.75.66-1.28.18-.57.48-.66.62-1.36.04-.62.53-.97.62-1.41.04-.48.4-1.45,1.36-1.5h.13c.26,0,.4.26.57.18.26.09.66.26,1.23.53.62.04.79.57,1.28.62.53.57.04,1.14-.22,1.23-.26.09-.44.18-.48.48-.48.75-.53,1.19-.84,1.63-.22.57-.79,1.23-.84,1.67-.48.53-.66,1.1-.88,1.58-.35.75-.22,1.45.31,1.98.18.26.26.31.53.4.31.18.79-.18,1.06-.53.26-.31.35-.7.7-1.32.35-.7.66-1.28,1.01-2.02.44-.62.53-1.58,1.5-1.63.35-.04.48.26.75.22.26.4.7.35,1.28.57.22.04.84.35,1.32.62.22.13.53.48.4.92-.18.7-.75.44-1.14.88-.13.31-.4.62-.75,1.14-.22.44-.35.57-.62,1.14-.48.48-.62,1.19-1.14,1.94-.31.84-.84.88-1.23,1.89-.31.35-.92,1.14-1.19,1.72-.7.88-.44,1.67.22,1.58.4.09,1.19-.04,1.67-.13.53-.22.92-.18.84-.79-.04-.44-.44-.84-.4-1.14.04-.31.13-.84.84-1.06.35-.13.48-.13.75-.4.18.04.4-.31.97-.31.7,0,.48.53.97.79.31.18.48.66.66,1.23.44.35.66,1.01.88,1.67.4.84.62,1.23.84,1.8.22.7.4.84.35,1.32.09.84-.66.97-.97,1.19-.53.13-.53.22-.97.44-.18.18-.48.18-.88.18-.84.18-.53-.66-1.23-1.28-.48-.4-1.19-.26-1.72-.13-.35.13-.88.13-1.14.44-.31.35-.13.88-.09,1.89ZM73.94,75.75c0,.53-.75.84-.75,1.41,0,.84-.09,1.63-.09,2.16.13.88-.26,2.07-.31,2.86-.31.92-.44,1.8-.48,2.9l-.35,1.58c-.18.62-.4,1.28-1.14.97-.48.09-1.28-.62-1.8-.7-.4-.22-.79-.53-.92-1.19-.09-.75.31-1.41.44-1.98-.04-.57.09-1.36.35-1.85-.04-.53,0-1.19.26-1.89-.18-.4.26-1.06.13-1.89,0-.48.26-1.14.09-1.94-.22-.53.09-1.76,1.19-1.5l1.8.35c1.01.04,1.58.18,1.58.7ZM80.81,80.02c-.09-.79-.31-1.5-.7-2.42-.44-1.06-.66-1.89-.62-2.11-.13-.48.26-.79.88-1.1.26.09.22-.4.66-.31.31.04.53-.04.7-.18.44-.09.66.09,1.14.66.4.53.26.97.62,1.28.35.4.4,1.14.66,1.67.26.79.4,1.67.35,1.98-.04.62-.62.75-.88,1.01-.4.35-.7.4-1.01.44-.22.04-.48.18-.7.22-.75-.13-1.01-.53-1.1-1.14ZM108.05,89.18c-.26.48-.31.92-1.14,1.06-.62.09-1.28-.44-1.85-.84-.53-.53-.97-.88-1.54-1.14-.66-.48-.97-.66-1.5-1.14-.62-.26-1.14-1.01-1.5-1.32-.48-.62-2.02-.4-2.55,0-.62.4-1.01.75-1.54,1.23-.35.31-1.14.79-1.58,1.1-.62.35-1.06.57-1.72.97-.48.26-.84.35-1.5.84-.79.44-1.14.62-1.67.53-.44.22-.92-.44-1.1-.7-.31-1.01-1.23-1.67-1.01-2.29.04-.75.4-1.06,1.1-1.19.57-.44,1.28-.53,2.11-1.06.7-.48,1.32-.62,1.94-1.23.48-.31.79-.57,1.19-.79.22-.4.7-.53.88-.84.09-.18.48-.7.62-1.5.04-.35,0-1.1-.44-1.41-.26-.18-.4-.79-.7-1.32-.31-.26-.53-.75-.66-1.28-.22-.62-.35-.97-.57-1.32-.31-.66-.7-.7-.97-.62-.44.09-.75.18-1.01,1.1-.22.4-.31.53-.22.75-.22.7-.66,1.63-.79,2.29-.53.88-.48,1.36-.97,2.2-.13.22-.66.79-.92,1.67-.31.26-.26.75-.7,1.28-.13.62-.66.97-.84,1.36-.26.53-.4.79-.88,1.28-.35.35-.79.88-.88,1.1-.66.75-1.28,1.23-1.45,1.06-.79-.09-1.19-.88-1.5-1.19-.57-.35-1.01-1.01-1.1-1.76.18-.57.7-1.19.92-1.58.26-.26.79-.97,1.14-1.45.4-.44.57-1.19,1.01-1.58.44-.48.44-.88.88-1.67.18-.44.62-1.28.79-1.76.04-.66.66-1.23.7-1.76.13-.66.35-1.41.57-1.8.04-.53.4-1.1.48-1.8.09-.57.18-1.19.4-1.8.26-.7.09-1.19.35-1.76-.09-.35.26-1.1.22-1.67-.13-.66.26-.97.18-1.72.18-.7-.13-1.19.13-1.76-.04-.79-.04-1.28.09-1.76.09-.4.09-1.23.04-1.76,0-.44-.18-1.23.04-1.76.09-.44.09-.92-.09-1.58-.04-.66-.79-1.1-1.28-1.06-1.28.04-1.63,0-2.95.04-.79.04-1.19-.44-1.19-1.5.13-.35-.18-1.01,0-1.28.09-.79.26-1.41,1.19-1.45,1.23.09,2.38.13,3.34,0,.79-.04,1.67-.13,2.82,0,1.14-.18,1.8.09,2.86,0,.7-.04,1.98.22,2.86,0h2.82c.62.04.97-.09,1.32-.18.44.18.62.22.79.44.35.18.48.66.97.84.22.18.66.75.92.92.35.22.18.4.35.66-.26.13-.31.48-.7.79-.04.26-.66,1.28-.53,1.63-.26.35-.31.75-.35,1.45-.22.75-.13,1.19-.4,1.5-.04.44-.04.57-.26,1.06-.18.4-.26.7-.26,1.06-.18.62.04,1.28,1.14,1.28.31-.09.97-.09,1.54-.09.66,0,.66-.31,1.41-.31.44-.09.79.13.88.53.31.22.75.75,1.01.92.44.18.48.57,1.01,1.01.13.13.26.44.18.79-.13.48-.53.7-.75.84-.4.22-.31.66-.44,1.01-.31.97-.66,1.8-.62,2.64-.18.84-.44,1.23-.57,1.85-.22.79-.44,1.32-.62,1.85-.26.7-.4,1.45-.7,1.8-.4.53-.4,1.36-.79,1.76-.13.75-.62,1.01-1.06,1.98-.35.75-.18,1.85.31,2.33.48.22,1.19,1.14,1.76,1.36.7.26,1.19.88,1.58,1.1.62.18.97.53,1.67,1.1.53.44,1.06.4,1.06,1.06v.22c-.13,1.06-.75,1.19-1.23,2.16ZM101.93,67.35c-.35,0-.57.18-.92,0-.75-.04-1.28.09-1.54.57-.22.4-.7.4-.97.31-1.23.09-1.67-.22-2.2-.22-.4.09-1.06-.48-.92-1.01-.04-.48.18-.66.35-1.28.04-.44.4-1.23.53-1.58.31-.4.22-.97.44-1.54.09-.44.09-1.14.44-1.54-.09-.66.04-1.23.4-1.58.13-.53.4-1.28.48-2.16.22-.31.31-.44.04-.84-.18-.26-.22-.66-1.45-.48-.26.18-1.67-.18-2.2.04-.53-.18-.97.57-1.06,1.06.09.53,0,1.41,0,2.11-.04.92-.18,1.58-.09,2.2-.09.44.18.35.18.79.22.35.22.53.18,1.01.18.57.18,1.32.4,1.94.31.57.4,1.23.44,1.94,0,.53.35,1.01.53,1.85,0,.79.44,1.1.66,1.89.35.48.62,1.19.7,1.85.4.44.57,1.41.84,1.8.35.22.48,1.19.7,1.36.4.88,1.5.97,1.94.48.26-.44.26-.7.48-1.01.13-.44.22-.66.57-1.28,0-.31.48-.97.48-1.36.22-.79.92-2.33,1.06-3.34.31-1.36-.09-1.94-.48-1.98Z"/>
      </g>
      <g>
        <path class="cls-2" d="M65.11,75.27v.75c0,.75-.48,1.06-1.45,1.14-.4-.09-1.19.18-1.8,0-.48.04-.97-.04-1.14-.31-.31-.48-.62-.84-1.01-1.06-.35-.09-1.19-.44-1.41-.35-.75-.18-1.94.13-2.86-.13-1.06.09-2.11-.18-3.26-.04-.97.22-1.89,1.23-1.67,1.67-.04.31-.22.84,0,1.1-.09.75-.04,1.63,0,2.51,0,1.1.18,1.94,0,2.55.09.7.09,1.89.04,2.55-.13.88-.22,1.85.04,2.6l.04,1.58c.09.97-.75,1.14-1.45,1.19-.13.04-.31.04-.44.04h-.09c-.44,0-.88-.04-1.28-.04h-.31c-.66-.04-1.54-.31-1.45-1.19.09-.66.04-1.36.04-2.24,0-.7.09-1.54.04-2.42.13-.92.09-1.58,0-2.38-.04-.48.13-1.41.04-2.38-.04-.57,0-1.76,0-2.38-.22-.44.04-.7-.09-1.28-.13-.48-.35-1.41-1.8-1.5-.75-.09-2.29.09-3.04-.04-.7.22-2.07,0-2.68,0-1.01-.04-1.54.31-1.89.84-.22.35-.4,1.01-.4,1.54.13.88-.4.97-1.5,1.14-.62-.09-1.01-.04-1.8,0-.92,0-1.41-.62-1.41-1.41-.09-.53-.13-1.14-.13-1.8,0-.48.04-1.06.13-1.58,0-.57-.04-1.19-.04-1.85,0-.35,0-.66.04-1.01-.04-.88.13-1.72,0-2.82,0-.84.18-1.67,0-2.86-.04-.48-.04-.92-.04-1.41,0-.44,0-.92.04-1.41.09-.57-.09-1.23-.09-2.02,0-.18,0-.4.04-.62.09-.75.66-1.32,1.58-1.36.4.13.84.04,1.41.04.57.18,1.06.04,1.89,0,.88-.09,1.45,0,2.46,0,.97-.09,1.58.13,2.46,0h2.6c.92-.09,1.23-.09,1.8-.75.18-.26.53-.92.4-1.14.04-.79-.13-1.67-.09-2.82,0-1.06-.09-1.54-.09-2.68.04-.7.62-1.14,1.23-1.19h.26c.57,0,1.1.09,1.76.09.7.04,1.14.13,1.94.13.35.09.75.26.7.48.04.44-.22.57-.4.84-.18.18-.44.31-.44.66s-.26.92-.09,1.76c-.18.92.13,1.8.04,2.02-.22.35.04.53,0,.84-.04.44.18.7.75,1.28.26.26.79.48,1.41.48.88.04,1.76.18,2.6,0,.75.09,1.8-.04,2.46,0,.7,0,1.5.09,2.46,0,.48.13,1.14-.09,1.85,0s1.28-.18,1.89,0c.79-.09.97.57,1.14,1.32-.09.79-.13,1.63-.04,2.64-.09.7.04,1.85,0,2.46-.22.62.09,1.8,0,2.46-.13.97.09,1.67,0,2.46.09.35.13.7.13,1.06,0,.44-.04.88-.13,1.41-.13,1.06.04,1.89.04,2.82ZM45.74,64.75c.09-.22-.13-.84-.66-1.19-.31-.53-1.06-.44-1.28-.62-.75.22-1.67,0-2.29,0h-2.16c-.7,0-1.23.13-1.8.04-1.06,0-1.72,1.06-1.67,1.67-.13.53.09.84,0,1.36,0,.48-.09,2.16-.04,2.64-.09.57.13,1.36.66,1.8.66.57,1.06.44,1.63.44.92-.04,1.67.13,2.68,0,.62.13,2.02.04,2.64,0,.53-.18,1.01-.09,1.5-.62.31-.22.75-.92.79-1.19.13-.57-.18-1.5,0-2.16.18-.57-.09-1.45,0-2.2ZM60.18,64.36c0-.4-.97-1.19-1.76-1.36-.66.13-.97,0-1.54-.04-.75-.04-1.41.09-2.2,0-.66.18-1.63.09-2.29,0-.57.13-1.06.44-1.23.62-.48.53-.88.84-.66,1.19-.04.84-.18,1.45,0,2.2.04.57-.04,1.41,0,2.16-.13.26.13.88.75,1.19.48.22.84.75,1.5.62.88.22,1.98,0,2.68,0,.84-.18,1.67,0,2.64,0,.66-.18.7-.09,1.63-.66.44-.26.66-.48.62-2.02,0-.4-.04-1.67,0-2.2.04-.7-.13-1.1-.13-1.67Z"/>
        <path class="cls-2" d="M78.96,73.6c-.04.92-.22,2.24,0,2.99.09.88-.04,1.63,0,2.6.13.97-.13,1.94,0,2.55-.09.53.18,1.14.04,1.94-.09.53-.18,1.45,0,1.89.04.84.18,1.54.04,1.98-.18.79-.04,1.54,0,1.98-.09,1.06-.75,1.28-1.5,1.36h-1.63c-.92-.04-1.54-.66-1.45-1.36.13-.4-.09-.44,0-.75.04-.57.13-1.32,0-1.8.04-.75-.18-1.01.04-1.76-.13-1.19-.04-2.46,0-3.48.09-.7-.18-1.41,0-2.42.09-1.01.18-1.54,0-2.51-.18-.75,0-1.58,0-2.33-.18-.57.18-1.28-.31-1.8-.57-.48-1.1-.35-1.67-.4-.53,0-1.36.04-1.89.31-.22.31-.48.66-.75.66-.84-.04-.88-.31-.97-.66s-.35-.75-.4-1.41c-.31-.92-.57-1.45-.57-1.94,0-.09.04-.18.04-.31,0-.4.44-.79,1.14-.7.31.04.48,0,.7-.04.57.04,1.01.09,1.54-.26.35-.22.79-.97,1.28-1.54.31-.44.7-1.36.26-2.11-.31-.35-.92-.57-1.01-.88-.66-.75-1.28-.75-1.63-1.41-.66-.44-1.19-.84-1.72-1.28-.18-.09-.66-.57-.66-1.06v-.13c.09-.4.04-.62.31-.84.26-.22.44-.62.66-.88.04-.31.44-1.01.97-.92.48.18.97.13,1.54-.88.04-.53.26-.75.66-1.28.18-.57.48-.66.62-1.36.04-.62.53-.97.62-1.41.04-.48.4-1.45,1.36-1.5h.13c.26,0,.4.26.57.18.26.09.66.26,1.23.53.62.04.79.57,1.28.62.53.57.04,1.14-.22,1.23-.26.09-.44.18-.48.48-.48.75-.53,1.19-.84,1.63-.22.57-.79,1.23-.84,1.67-.48.53-.66,1.1-.88,1.58-.35.75-.22,1.45.31,1.98.18.26.26.31.53.4.31.18.79-.18,1.06-.53.26-.31.35-.7.7-1.32.35-.7.66-1.28,1.01-2.02.44-.62.53-1.58,1.5-1.63.35-.04.48.26.75.22.26.4.7.35,1.28.57.22.04.84.35,1.32.62.22.13.53.48.4.92-.18.7-.75.44-1.14.88-.13.31-.4.62-.75,1.14-.22.44-.35.57-.62,1.14-.48.48-.62,1.19-1.14,1.94-.31.84-.84.88-1.23,1.89-.31.35-.92,1.14-1.19,1.72-.7.88-.44,1.67.22,1.58.4.09,1.19-.04,1.67-.13.53-.22.92-.18.84-.79-.04-.44-.44-.84-.4-1.14.04-.31.13-.84.84-1.06.35-.13.48-.13.75-.4.18.04.4-.31.97-.31.7,0,.48.53.97.79.31.18.48.66.66,1.23.44.35.66,1.01.88,1.67.4.84.62,1.23.84,1.8.22.7.4.84.35,1.32.09.84-.66.97-.97,1.19-.53.13-.53.22-.97.44-.18.18-.48.18-.88.18-.84.18-.53-.66-1.23-1.28-.48-.4-1.19-.26-1.72-.13-.35.13-.88.13-1.14.44-.31.35-.13.88-.09,1.89ZM73.94,75.75c0,.53-.75.84-.75,1.41,0,.84-.09,1.63-.09,2.16.13.88-.26,2.07-.31,2.86-.31.92-.44,1.8-.48,2.9l-.35,1.58c-.18.62-.4,1.28-1.14.97-.48.09-1.28-.62-1.8-.7-.4-.22-.79-.53-.92-1.19-.09-.75.31-1.41.44-1.98-.04-.57.09-1.36.35-1.85-.04-.53,0-1.19.26-1.89-.18-.4.26-1.06.13-1.89,0-.48.26-1.14.09-1.94-.22-.53.09-1.76,1.19-1.5l1.8.35c1.01.04,1.58.18,1.58.7ZM80.81,80.02c-.09-.79-.31-1.5-.7-2.42-.44-1.06-.66-1.89-.62-2.11-.13-.48.26-.79.88-1.1.26.09.22-.4.66-.31.31.04.53-.04.7-.18.44-.09.66.09,1.14.66.4.53.26.97.62,1.28.35.4.4,1.14.66,1.67.26.79.4,1.67.35,1.98-.04.62-.62.75-.88,1.01-.4.35-.7.4-1.01.44-.22.04-.48.18-.7.22-.75-.13-1.01-.53-1.1-1.14ZM108.05,89.18c-.26.48-.31.92-1.14,1.06-.62.09-1.28-.44-1.85-.84-.53-.53-.97-.88-1.54-1.14-.66-.48-.97-.66-1.5-1.14-.62-.26-1.14-1.01-1.5-1.32-.48-.62-2.02-.4-2.55,0-.62.4-1.01.75-1.54,1.23-.35.31-1.14.79-1.58,1.1-.62.35-1.06.57-1.72.97-.48.26-.84.35-1.5.84-.79.44-1.14.62-1.67.53-.44.22-.92-.44-1.1-.7-.31-1.01-1.23-1.67-1.01-2.29.04-.75.4-1.06,1.1-1.19.57-.44,1.28-.53,2.11-1.06.7-.48,1.32-.62,1.94-1.23.48-.31.79-.57,1.19-.79.22-.4.7-.53.88-.84.09-.18.48-.7.62-1.5.04-.35,0-1.1-.44-1.41-.26-.18-.4-.79-.7-1.32-.31-.26-.53-.75-.66-1.28-.22-.62-.35-.97-.57-1.32-.31-.66-.7-.7-.97-.62-.44.09-.75.18-1.01,1.1-.22.4-.31.53-.22.75-.22.7-.66,1.63-.79,2.29-.53.88-.48,1.36-.97,2.2-.13.22-.66.79-.92,1.67-.31.26-.26.75-.7,1.28-.13.62-.66.97-.84,1.36-.26.53-.4.79-.88,1.28-.35.35-.79.88-.88,1.1-.66.75-1.28,1.23-1.45,1.06-.79-.09-1.19-.88-1.5-1.19-.57-.35-1.01-1.01-1.1-1.76.18-.57.7-1.19.92-1.58.26-.26.79-.97,1.14-1.45.4-.44.57-1.19,1.01-1.58.44-.48.44-.88.88-1.67.18-.44.62-1.28.79-1.76.04-.66.66-1.23.7-1.76.13-.66.35-1.41.57-1.8.04-.53.4-1.1.48-1.8.09-.57.18-1.19.4-1.8.26-.7.09-1.19.35-1.76-.09-.35.26-1.1.22-1.67-.13-.66.26-.97.18-1.72.18-.7-.13-1.19.13-1.76-.04-.79-.04-1.28.09-1.76.09-.4.09-1.23.04-1.76,0-.44-.18-1.23.04-1.76.09-.44.09-.92-.09-1.58-.04-.66-.79-1.1-1.28-1.06-1.28.04-1.63,0-2.95.04-.79.04-1.19-.44-1.19-1.5.13-.35-.18-1.01,0-1.28.09-.79.26-1.41,1.19-1.45,1.23.09,2.38.13,3.34,0,.79-.04,1.67-.13,2.82,0,1.14-.18,1.8.09,2.86,0,.7-.04,1.98.22,2.86,0h2.82c.62.04.97-.09,1.32-.18.44.18.62.22.79.44.35.18.48.66.97.84.22.18.66.75.92.92.35.22.18.4.35.66-.26.13-.31.48-.7.79-.04.26-.66,1.28-.53,1.63-.26.35-.31.75-.35,1.45-.22.75-.13,1.19-.4,1.5-.04.44-.04.57-.26,1.06-.18.4-.26.7-.26,1.06-.18.62.04,1.28,1.14,1.28.31-.09.97-.09,1.54-.09.66,0,.66-.31,1.41-.31.44-.09.79.13.88.53.31.22.75.75,1.01.92.44.18.48.57,1.01,1.01.13.13.26.44.18.79-.13.48-.53.7-.75.84-.4.22-.31.66-.44,1.01-.31.97-.66,1.8-.62,2.64-.18.84-.44,1.23-.57,1.85-.22.79-.44,1.32-.62,1.85-.26.7-.4,1.45-.7,1.8-.4.53-.4,1.36-.79,1.76-.13.75-.62,1.01-1.06,1.98-.35.75-.18,1.85.31,2.33.48.22,1.19,1.14,1.76,1.36.7.26,1.19.88,1.58,1.1.62.18.97.53,1.67,1.1.53.44,1.06.4,1.06,1.06v.22c-.13,1.06-.75,1.19-1.23,2.16ZM101.93,67.35c-.35,0-.57.18-.92,0-.75-.04-1.28.09-1.54.57-.22.4-.7.4-.97.31-1.23.09-1.67-.22-2.2-.22-.4.09-1.06-.48-.92-1.01-.04-.48.18-.66.35-1.28.04-.44.4-1.23.53-1.58.31-.4.22-.97.44-1.54.09-.44.09-1.14.44-1.54-.09-.66.04-1.23.4-1.58.13-.53.4-1.28.48-2.16.22-.31.31-.44.04-.84-.18-.26-.22-.66-1.45-.48-.26.18-1.67-.18-2.2.04-.53-.18-.97.57-1.06,1.06.09.53,0,1.41,0,2.11-.04.92-.18,1.58-.09,2.2-.09.44.18.35.18.79.22.35.22.53.18,1.01.18.57.18,1.32.4,1.94.31.57.4,1.23.44,1.94,0,.53.35,1.01.53,1.85,0,.79.44,1.1.66,1.89.35.48.62,1.19.7,1.85.4.44.57,1.41.84,1.8.35.22.48,1.19.7,1.36.4.88,1.5.97,1.94.48.26-.44.26-.7.48-1.01.13-.44.22-.66.57-1.28,0-.31.48-.97.48-1.36.22-.79.92-2.33,1.06-3.34.31-1.36-.09-1.94-.48-1.98Z"/>
      </g>
    </g>
  </g>
</svg>